<svg xmlns="http://www.w3.org/2000/svg" xmlns:xlink="http://www.w3.org/1999/xlink" width="500" zoomAndPan="magnify" viewBox="0 0 375 374.999991" height="500" preserveAspectRatio="xMidYMid meet" version="1.0"><defs><linearGradient x1="0.984286" gradientTransform="matrix(-3.704347, 0, 0, -3.704347, 378.646115, 378.646111)" y1="56.618" x2="102.216707" gradientUnits="userSpaceOnUse" y2="56.618" id="b21f824000"><stop stop-opacity="1" stop-color="rgb(22.134399%, 71.038818%, 100%)" offset="0"/><stop stop-opacity="1" stop-color="rgb(22.189331%, 70.89386%, 100%)" offset="0.0078125"/><stop stop-opacity="1" stop-color="rgb(22.297668%, 70.603943%, 100%)" offset="0.015625"/><stop stop-opacity="1" stop-color="rgb(22.407532%, 70.314026%, 100%)" offset="0.0234375"/><stop stop-opacity="1" stop-color="rgb(22.515869%, 70.024109%, 100%)" offset="0.03125"/><stop stop-opacity="1" stop-color="rgb(22.625732%, 69.734192%, 100%)" offset="0.0390625"/><stop stop-opacity="1" stop-color="rgb(22.73407%, 69.444275%, 100%)" offset="0.046875"/><stop stop-opacity="1" stop-color="rgb(22.843933%, 69.154358%, 100%)" offset="0.0546875"/><stop stop-opacity="1" stop-color="rgb(22.952271%, 68.864441%, 100%)" offset="0.0625"/><stop stop-opacity="1" stop-color="rgb(23.062134%, 68.574524%, 100%)" offset="0.0703125"/><stop stop-opacity="1" stop-color="rgb(23.170471%, 68.284607%, 100%)" offset="0.078125"/><stop stop-opacity="1" stop-color="rgb(23.280334%, 67.99469%, 100%)" offset="0.0859375"/><stop stop-opacity="1" stop-color="rgb(23.388672%, 67.704773%, 100%)" offset="0.09375"/><stop stop-opacity="1" stop-color="rgb(23.498535%, 67.414856%, 100%)" offset="0.101562"/><stop stop-opacity="1" stop-color="rgb(23.606873%, 67.124939%, 100%)" offset="0.109375"/><stop stop-opacity="1" stop-color="rgb(23.716736%, 66.835022%, 100%)" offset="0.117188"/><stop stop-opacity="1" stop-color="rgb(23.825073%, 66.545105%, 100%)" offset="0.125"/><stop stop-opacity="1" stop-color="rgb(23.934937%, 66.255188%, 100%)" offset="0.132812"/><stop stop-opacity="1" stop-color="rgb(24.043274%, 65.965271%, 100%)" offset="0.140625"/><stop stop-opacity="1" stop-color="rgb(24.153137%, 65.67688%, 100%)" offset="0.148437"/><stop stop-opacity="1" stop-color="rgb(24.261475%, 65.386963%, 100%)" offset="0.15625"/><stop stop-opacity="1" stop-color="rgb(24.371338%, 65.097046%, 100%)" offset="0.164062"/><stop stop-opacity="1" stop-color="rgb(24.479675%, 64.807129%, 100%)" offset="0.171875"/><stop stop-opacity="1" stop-color="rgb(24.589539%, 64.517212%, 100%)" offset="0.179688"/><stop stop-opacity="1" stop-color="rgb(24.697876%, 64.227295%, 100%)" offset="0.1875"/><stop stop-opacity="1" stop-color="rgb(24.807739%, 63.937378%, 100%)" offset="0.195312"/><stop stop-opacity="1" stop-color="rgb(24.916077%, 63.647461%, 100%)" offset="0.203125"/><stop stop-opacity="1" stop-color="rgb(25.02594%, 63.357544%, 100%)" offset="0.210938"/><stop stop-opacity="1" stop-color="rgb(25.134277%, 63.067627%, 100%)" offset="0.21875"/><stop stop-opacity="1" stop-color="rgb(25.244141%, 62.77771%, 100%)" offset="0.226563"/><stop stop-opacity="1" stop-color="rgb(25.352478%, 62.487793%, 100%)" offset="0.234375"/><stop stop-opacity="1" stop-color="rgb(25.462341%, 62.197876%, 100%)" offset="0.242188"/><stop stop-opacity="1" stop-color="rgb(25.570679%, 61.907959%, 100%)" offset="0.25"/><stop stop-opacity="1" stop-color="rgb(25.680542%, 61.618042%, 100%)" offset="0.257812"/><stop stop-opacity="1" stop-color="rgb(25.788879%, 61.328125%, 100%)" offset="0.265625"/><stop stop-opacity="1" stop-color="rgb(25.898743%, 61.038208%, 100%)" offset="0.273438"/><stop stop-opacity="1" stop-color="rgb(26.00708%, 60.748291%, 100%)" offset="0.28125"/><stop stop-opacity="1" stop-color="rgb(26.116943%, 60.458374%, 100%)" offset="0.289062"/><stop stop-opacity="1" stop-color="rgb(26.225281%, 60.168457%, 100%)" offset="0.296875"/><stop stop-opacity="1" stop-color="rgb(26.335144%, 59.87854%, 100%)" offset="0.304687"/><stop stop-opacity="1" stop-color="rgb(26.443481%, 59.588623%, 100%)" offset="0.3125"/><stop stop-opacity="1" stop-color="rgb(26.553345%, 59.298706%, 100%)" offset="0.320312"/><stop stop-opacity="1" stop-color="rgb(26.661682%, 59.008789%, 100%)" offset="0.328125"/><stop stop-opacity="1" stop-color="rgb(26.771545%, 58.718872%, 100%)" offset="0.335938"/><stop stop-opacity="1" stop-color="rgb(26.879883%, 58.430481%, 100%)" offset="0.34375"/><stop stop-opacity="1" stop-color="rgb(26.989746%, 58.140564%, 100%)" offset="0.351562"/><stop stop-opacity="1" stop-color="rgb(27.098083%, 57.850647%, 100%)" offset="0.359375"/><stop stop-opacity="1" stop-color="rgb(27.207947%, 57.56073%, 100%)" offset="0.367187"/><stop stop-opacity="1" stop-color="rgb(27.316284%, 57.270813%, 100%)" offset="0.375"/><stop stop-opacity="1" stop-color="rgb(27.426147%, 56.980896%, 100%)" offset="0.382812"/><stop stop-opacity="1" stop-color="rgb(27.534485%, 56.690979%, 100%)" offset="0.390625"/><stop stop-opacity="1" stop-color="rgb(27.644348%, 56.401062%, 100%)" offset="0.398437"/><stop stop-opacity="1" stop-color="rgb(27.752686%, 56.111145%, 100%)" offset="0.40625"/><stop stop-opacity="1" stop-color="rgb(27.862549%, 55.821228%, 100%)" offset="0.414062"/><stop stop-opacity="1" stop-color="rgb(27.970886%, 55.531311%, 100%)" offset="0.421875"/><stop stop-opacity="1" stop-color="rgb(28.08075%, 55.241394%, 100%)" offset="0.429687"/><stop stop-opacity="1" stop-color="rgb(28.189087%, 54.951477%, 100%)" offset="0.4375"/><stop stop-opacity="1" stop-color="rgb(28.29895%, 54.66156%, 100%)" offset="0.445312"/><stop stop-opacity="1" stop-color="rgb(28.407288%, 54.371643%, 100%)" offset="0.453125"/><stop stop-opacity="1" stop-color="rgb(28.517151%, 54.081726%, 100%)" offset="0.460937"/><stop stop-opacity="1" stop-color="rgb(28.625488%, 53.791809%, 100%)" offset="0.46875"/><stop stop-opacity="1" stop-color="rgb(28.735352%, 53.501892%, 100%)" offset="0.476562"/><stop stop-opacity="1" stop-color="rgb(28.843689%, 53.211975%, 100%)" offset="0.484375"/><stop stop-opacity="1" stop-color="rgb(28.953552%, 52.922058%, 100%)" offset="0.492187"/><stop stop-opacity="1" stop-color="rgb(29.06189%, 52.632141%, 100%)" offset="0.5"/><stop stop-opacity="1" stop-color="rgb(29.171753%, 52.342224%, 100%)" offset="0.507812"/><stop stop-opacity="1" stop-color="rgb(29.28009%, 52.052307%, 100%)" offset="0.515625"/><stop stop-opacity="1" stop-color="rgb(29.389954%, 51.76239%, 100%)" offset="0.523437"/><stop stop-opacity="1" stop-color="rgb(29.498291%, 51.473999%, 100%)" offset="0.53125"/><stop stop-opacity="1" stop-color="rgb(29.608154%, 51.184082%, 100%)" offset="0.539062"/><stop stop-opacity="1" stop-color="rgb(29.716492%, 50.894165%, 100%)" offset="0.546875"/><stop stop-opacity="1" stop-color="rgb(29.826355%, 50.604248%, 100%)" offset="0.554687"/><stop stop-opacity="1" stop-color="rgb(29.934692%, 50.314331%, 100%)" offset="0.5625"/><stop stop-opacity="1" stop-color="rgb(30.044556%, 50.024414%, 100%)" offset="0.570312"/><stop stop-opacity="1" stop-color="rgb(30.152893%, 49.734497%, 100%)" offset="0.578125"/><stop stop-opacity="1" stop-color="rgb(30.262756%, 49.44458%, 100%)" offset="0.585937"/><stop stop-opacity="1" stop-color="rgb(30.371094%, 49.154663%, 100%)" offset="0.59375"/><stop stop-opacity="1" stop-color="rgb(30.480957%, 48.864746%, 100%)" offset="0.601562"/><stop stop-opacity="1" stop-color="rgb(30.589294%, 48.574829%, 100%)" offset="0.609375"/><stop stop-opacity="1" stop-color="rgb(30.699158%, 48.284912%, 100%)" offset="0.617187"/><stop stop-opacity="1" stop-color="rgb(30.807495%, 47.994995%, 100%)" offset="0.625"/><stop stop-opacity="1" stop-color="rgb(30.917358%, 47.705078%, 100%)" offset="0.632812"/><stop stop-opacity="1" stop-color="rgb(31.025696%, 47.415161%, 100%)" offset="0.640625"/><stop stop-opacity="1" stop-color="rgb(31.135559%, 47.125244%, 100%)" offset="0.648437"/><stop stop-opacity="1" stop-color="rgb(31.243896%, 46.835327%, 100%)" offset="0.65625"/><stop stop-opacity="1" stop-color="rgb(31.35376%, 46.54541%, 100%)" offset="0.664062"/><stop stop-opacity="1" stop-color="rgb(31.462097%, 46.255493%, 100%)" offset="0.671875"/><stop stop-opacity="1" stop-color="rgb(31.57196%, 45.965576%, 100%)" offset="0.679687"/><stop stop-opacity="1" stop-color="rgb(31.680298%, 45.675659%, 100%)" offset="0.6875"/><stop stop-opacity="1" stop-color="rgb(31.790161%, 45.385742%, 100%)" offset="0.695312"/><stop stop-opacity="1" stop-color="rgb(31.898499%, 45.095825%, 100%)" offset="0.703125"/><stop stop-opacity="1" stop-color="rgb(32.008362%, 44.805908%, 100%)" offset="0.710937"/><stop stop-opacity="1" stop-color="rgb(32.116699%, 44.515991%, 100%)" offset="0.71875"/><stop stop-opacity="1" stop-color="rgb(32.185364%, 44.335938%, 100%)" offset="0.75"/><stop stop-opacity="1" stop-color="rgb(32.199097%, 44.299316%, 100%)" offset="1"/></linearGradient><clipPath id="13aaa3c630"><path d="M 35.660156 298 L 190 298 L 190 302.855469 L 35.660156 302.855469 Z M 35.660156 298 " clip-rule="nonzero"/></clipPath><clipPath id="4e4c90c5a9"><path d="M 52 195 L 58 195 L 58 302.855469 L 52 302.855469 Z M 52 195 " clip-rule="nonzero"/></clipPath><clipPath id="96cf23d112"><path d="M 118 124 L 123 124 L 123 302.855469 L 118 302.855469 Z M 118 124 " clip-rule="nonzero"/></clipPath><clipPath id="7c834aa857"><path d="M 141 124 L 147 124 L 147 302.855469 L 141 302.855469 Z M 141 124 " clip-rule="nonzero"/></clipPath><clipPath id="e84774a9a6"><path d="M 131 71.855469 L 136 71.855469 L 136 88 L 131 88 Z M 131 71.855469 " clip-rule="nonzero"/></clipPath><clipPath id="f39829702d"><path d="M 69 242 L 75 242 L 75 302.855469 L 69 302.855469 Z M 69 242 " clip-rule="nonzero"/></clipPath><clipPath id="df50ca22b0"><path d="M 106 242 L 112 242 L 112 302.855469 L 106 302.855469 Z M 106 242 " clip-rule="nonzero"/></clipPath><clipPath id="16e128a85d"><path d="M 78 251 L 93 251 L 93 302.855469 L 78 302.855469 Z M 78 251 " clip-rule="nonzero"/></clipPath><clipPath id="4a2e54e718"><path d="M 89 251 L 104 251 L 104 302.855469 L 89 302.855469 Z M 89 251 " clip-rule="nonzero"/></clipPath><clipPath id="09b9d27ed4"><path d="M 152 199 L 189 199 L 189 302.855469 L 152 302.855469 Z M 152 199 " clip-rule="nonzero"/></clipPath><clipPath id="85202327fc"><path d="M 184 298 L 337.160156 298 L 337.160156 302.855469 L 184 302.855469 Z M 184 298 " clip-rule="nonzero"/></clipPath><clipPath id="9673f96065"><path d="M 315 195 L 321 195 L 321 302.855469 L 315 302.855469 Z M 315 195 " clip-rule="nonzero"/></clipPath><clipPath id="967c13b055"><path d="M 250 124 L 256 124 L 256 302.855469 L 250 302.855469 Z M 250 124 " clip-rule="nonzero"/></clipPath><clipPath id="41b5ca9a65"><path d="M 226 124 L 232 124 L 232 302.855469 L 226 302.855469 Z M 226 124 " clip-rule="nonzero"/></clipPath><clipPath id="aa2bdf0635"><path d="M 237 71.855469 L 242 71.855469 L 242 88 L 237 88 Z M 237 71.855469 " clip-rule="nonzero"/></clipPath><clipPath id="d60d064639"><path d="M 298 242 L 304 242 L 304 302.855469 L 298 302.855469 Z M 298 242 " clip-rule="nonzero"/></clipPath><clipPath id="5643bed04a"><path d="M 262 242 L 267 242 L 267 302.855469 L 262 302.855469 Z M 262 242 " clip-rule="nonzero"/></clipPath><clipPath id="409c5eec78"><path d="M 280 251 L 295 251 L 295 302.855469 L 280 302.855469 Z M 280 251 " clip-rule="nonzero"/></clipPath><clipPath id="ed166d961f"><path d="M 270 251 L 284 251 L 284 302.855469 L 270 302.855469 Z M 270 251 " clip-rule="nonzero"/></clipPath><clipPath id="a0ece774fa"><path d="M 184 199 L 222 199 L 222 302.855469 L 184 302.855469 Z M 184 199 " clip-rule="nonzero"/></clipPath></defs><rect x="-37.5" width="450" fill="#ffffff" y="-37.499999" height="449.999989" fill-opacity="1"/><rect x="-37.5" width="450" fill="#ffffff" y="-37.499999" height="449.999989" fill-opacity="1"/><rect x="-37.5" fill="url(#b21f824000)" width="450" y="-37.499999" height="449.999989"/><g clip-path="url(#13aaa3c630)"><path fill="#ffffff" d="M 38.003906 303.113281 L 187.285156 303.113281 C 187.589844 303.113281 187.882812 303.054688 188.164062 302.9375 C 188.445312 302.824219 188.691406 302.65625 188.90625 302.441406 C 189.121094 302.226562 189.285156 301.980469 189.402344 301.699219 C 189.519531 301.417969 189.578125 301.125 189.578125 300.820312 C 189.578125 300.519531 189.519531 300.226562 189.402344 299.945312 C 189.285156 299.664062 189.121094 299.417969 188.90625 299.203125 C 188.691406 298.988281 188.445312 298.820312 188.164062 298.703125 C 187.882812 298.589844 187.589844 298.53125 187.285156 298.53125 L 38.003906 298.53125 C 37.699219 298.53125 37.40625 298.589844 37.125 298.703125 C 36.84375 298.820312 36.597656 298.988281 36.382812 299.203125 C 36.167969 299.417969 36 299.664062 35.886719 299.945312 C 35.769531 300.226562 35.710938 300.519531 35.710938 300.820312 C 35.710938 301.125 35.769531 301.417969 35.886719 301.699219 C 36 301.980469 36.167969 302.226562 36.382812 302.441406 C 36.597656 302.65625 36.84375 302.824219 37.125 302.9375 C 37.40625 303.054688 37.699219 303.113281 38.003906 303.113281 Z M 38.003906 303.113281 " fill-opacity="1" fill-rule="nonzero"/></g><g clip-path="url(#4e4c90c5a9)"><path fill="#ffffff" d="M 57.316406 300.820312 L 57.316406 197.371094 C 57.316406 197.066406 57.257812 196.773438 57.144531 196.496094 C 57.027344 196.214844 56.863281 195.964844 56.648438 195.75 C 56.433594 195.535156 56.183594 195.371094 55.902344 195.253906 C 55.621094 195.136719 55.332031 195.078125 55.027344 195.078125 C 54.722656 195.078125 54.429688 195.136719 54.148438 195.253906 C 53.867188 195.371094 53.621094 195.535156 53.40625 195.75 C 53.191406 195.964844 53.023438 196.214844 52.910156 196.496094 C 52.792969 196.773438 52.734375 197.066406 52.734375 197.371094 L 52.734375 300.820312 C 52.734375 301.125 52.792969 301.417969 52.910156 301.699219 C 53.023438 301.980469 53.191406 302.226562 53.40625 302.441406 C 53.621094 302.65625 53.867188 302.824219 54.148438 302.9375 C 54.429688 303.054688 54.722656 303.113281 55.027344 303.113281 C 55.332031 303.113281 55.621094 303.054688 55.902344 302.9375 C 56.183594 302.824219 56.433594 302.65625 56.648438 302.441406 C 56.863281 302.226562 57.027344 301.980469 57.144531 301.699219 C 57.257812 301.417969 57.316406 301.125 57.316406 300.820312 Z M 57.316406 300.820312 " fill-opacity="1" fill-rule="nonzero"/></g><path fill="#ffffff" d="M 57.316406 182.96875 L 57.316406 160.707031 C 57.316406 160.402344 57.257812 160.109375 57.144531 159.828125 C 57.027344 159.546875 56.863281 159.300781 56.648438 159.085938 C 56.433594 158.871094 56.183594 158.703125 55.902344 158.589844 C 55.621094 158.472656 55.332031 158.414062 55.027344 158.414062 C 54.722656 158.414062 54.429688 158.472656 54.148438 158.589844 C 53.867188 158.703125 53.621094 158.871094 53.40625 159.085938 C 53.191406 159.300781 53.023438 159.546875 52.910156 159.828125 C 52.792969 160.109375 52.734375 160.402344 52.734375 160.707031 L 52.734375 182.96875 C 52.734375 183.269531 52.792969 183.5625 52.910156 183.84375 C 53.023438 184.125 53.191406 184.371094 53.40625 184.585938 C 53.621094 184.800781 53.867188 184.96875 54.148438 185.085938 C 54.429688 185.199219 54.722656 185.257812 55.027344 185.257812 C 55.332031 185.257812 55.621094 185.199219 55.902344 185.085938 C 56.183594 184.96875 56.433594 184.800781 56.648438 184.585938 C 56.863281 184.371094 57.027344 184.125 57.144531 183.84375 C 57.257812 183.5625 57.316406 183.269531 57.316406 182.96875 Z M 57.316406 182.96875 " fill-opacity="1" fill-rule="nonzero"/><g clip-path="url(#96cf23d112)"><path fill="#ffffff" d="M 122.792969 300.820312 L 122.792969 126.660156 C 122.792969 126.355469 122.734375 126.0625 122.617188 125.78125 C 122.503906 125.5 122.335938 125.253906 122.121094 125.039062 C 121.90625 124.824219 121.660156 124.65625 121.378906 124.542969 C 121.097656 124.425781 120.804688 124.367188 120.5 124.367188 C 120.199219 124.367188 119.90625 124.425781 119.625 124.542969 C 119.34375 124.65625 119.097656 124.824219 118.878906 125.039062 C 118.664062 125.253906 118.5 125.5 118.382812 125.78125 C 118.269531 126.0625 118.210938 126.355469 118.210938 126.660156 L 118.210938 300.820312 C 118.210938 301.125 118.269531 301.417969 118.382812 301.699219 C 118.5 301.980469 118.664062 302.226562 118.878906 302.441406 C 119.097656 302.65625 119.34375 302.824219 119.625 302.9375 C 119.90625 303.054688 120.199219 303.113281 120.5 303.113281 C 120.804688 303.113281 121.097656 303.054688 121.378906 302.9375 C 121.660156 302.824219 121.90625 302.65625 122.121094 302.441406 C 122.335938 302.226562 122.503906 301.980469 122.617188 301.699219 C 122.734375 301.417969 122.792969 301.125 122.792969 300.820312 Z M 122.792969 300.820312 " fill-opacity="1" fill-rule="nonzero"/></g><g clip-path="url(#7c834aa857)"><path fill="#ffffff" d="M 146.363281 300.820312 L 146.363281 126.660156 C 146.363281 126.355469 146.304688 126.0625 146.1875 125.78125 C 146.074219 125.5 145.90625 125.253906 145.691406 125.039062 C 145.476562 124.824219 145.230469 124.65625 144.949219 124.542969 C 144.667969 124.425781 144.375 124.367188 144.074219 124.367188 C 143.769531 124.367188 143.476562 124.425781 143.195312 124.542969 C 142.914062 124.65625 142.667969 124.824219 142.453125 125.039062 C 142.238281 125.253906 142.070312 125.5 141.953125 125.78125 C 141.839844 126.0625 141.78125 126.355469 141.78125 126.660156 L 141.78125 300.820312 C 141.78125 301.125 141.839844 301.417969 141.953125 301.699219 C 142.070312 301.980469 142.238281 302.226562 142.453125 302.441406 C 142.667969 302.65625 142.914062 302.824219 143.195312 302.9375 C 143.476562 303.054688 143.769531 303.113281 144.074219 303.113281 C 144.375 303.113281 144.667969 303.054688 144.949219 302.9375 C 145.230469 302.824219 145.476562 302.65625 145.691406 302.441406 C 145.90625 302.226562 146.074219 301.980469 146.1875 301.699219 C 146.304688 301.417969 146.363281 301.125 146.363281 300.820312 Z M 146.363281 300.820312 " fill-opacity="1" fill-rule="nonzero"/></g><path fill="#ffffff" d="M 144.074219 195.078125 L 48.480469 195.078125 C 48.175781 195.078125 47.882812 195.136719 47.601562 195.253906 C 47.320312 195.371094 47.074219 195.535156 46.859375 195.75 C 46.644531 195.964844 46.476562 196.214844 46.363281 196.496094 C 46.246094 196.773438 46.1875 197.066406 46.1875 197.371094 C 46.1875 197.675781 46.246094 197.96875 46.363281 198.25 C 46.476562 198.527344 46.644531 198.777344 46.859375 198.992188 C 47.074219 199.207031 47.320312 199.371094 47.601562 199.488281 C 47.882812 199.605469 48.175781 199.664062 48.480469 199.664062 L 144.074219 199.664062 C 144.375 199.664062 144.667969 199.605469 144.949219 199.488281 C 145.230469 199.371094 145.476562 199.207031 145.691406 198.992188 C 145.90625 198.777344 146.074219 198.527344 146.1875 198.25 C 146.304688 197.96875 146.363281 197.675781 146.363281 197.371094 C 146.363281 197.066406 146.304688 196.773438 146.1875 196.496094 C 146.074219 196.214844 145.90625 195.964844 145.691406 195.75 C 145.476562 195.535156 145.230469 195.371094 144.949219 195.253906 C 144.667969 195.136719 144.375 195.078125 144.074219 195.078125 Z M 144.074219 195.078125 " fill-opacity="1" fill-rule="nonzero"/><path fill="#ffffff" d="M 142.761719 180.675781 L 43.242188 180.675781 C 42.9375 180.675781 42.644531 180.734375 42.363281 180.851562 C 42.082031 180.964844 41.835938 181.132812 41.621094 181.347656 C 41.40625 181.5625 41.238281 181.808594 41.125 182.089844 C 41.007812 182.371094 40.949219 182.664062 40.949219 182.96875 C 40.949219 183.269531 41.007812 183.5625 41.125 183.84375 C 41.238281 184.125 41.40625 184.371094 41.621094 184.585938 C 41.835938 184.800781 42.082031 184.96875 42.363281 185.085938 C 42.644531 185.199219 42.9375 185.257812 43.242188 185.257812 L 142.761719 185.257812 C 143.066406 185.257812 143.359375 185.199219 143.640625 185.085938 C 143.921875 184.96875 144.167969 184.800781 144.382812 184.585938 C 144.597656 184.371094 144.761719 184.125 144.878906 183.84375 C 144.996094 183.5625 145.054688 183.269531 145.054688 182.96875 C 145.054688 182.664062 144.996094 182.371094 144.878906 182.089844 C 144.761719 181.808594 144.597656 181.5625 144.382812 181.347656 C 144.167969 181.132812 143.921875 180.964844 143.640625 180.851562 C 143.359375 180.734375 143.066406 180.675781 142.761719 180.675781 Z M 142.761719 180.675781 " fill-opacity="1" fill-rule="nonzero"/><path fill="#ffffff" d="M 50.429688 196.859375 L 44.957031 182.285156 C 43.933594 179.550781 39.496094 180.742188 40.542969 183.503906 L 46.003906 198.078125 C 47.023438 200.816406 51.464844 199.625 50.417969 196.859375 Z M 50.429688 196.859375 " fill-opacity="1" fill-rule="nonzero"/><path fill="#ffffff" d="M 185.976562 158.414062 L 49.789062 158.414062 C 49.484375 158.414062 49.191406 158.472656 48.910156 158.589844 C 48.628906 158.703125 48.382812 158.871094 48.167969 159.085938 C 47.953125 159.300781 47.789062 159.546875 47.671875 159.828125 C 47.554688 160.109375 47.496094 160.402344 47.496094 160.707031 C 47.496094 161.007812 47.554688 161.300781 47.671875 161.582031 C 47.789062 161.863281 47.953125 162.109375 48.167969 162.324219 C 48.382812 162.539062 48.628906 162.707031 48.910156 162.824219 C 49.191406 162.9375 49.484375 162.996094 49.789062 162.996094 L 185.976562 162.996094 C 186.28125 162.996094 186.574219 162.9375 186.851562 162.824219 C 187.132812 162.707031 187.382812 162.539062 187.597656 162.324219 C 187.8125 162.109375 187.976562 161.863281 188.09375 161.582031 C 188.210938 161.300781 188.269531 161.007812 188.269531 160.707031 C 188.269531 160.402344 188.210938 160.109375 188.09375 159.828125 C 187.976562 159.546875 187.8125 159.300781 187.597656 159.085938 C 187.382812 158.871094 187.132812 158.703125 186.851562 158.589844 C 186.574219 158.472656 186.28125 158.414062 185.976562 158.414062 Z M 185.976562 158.414062 " fill-opacity="1" fill-rule="nonzero"/><path fill="#ffffff" d="M 120.5 142.699219 L 49.789062 142.699219 C 49.484375 142.699219 49.191406 142.757812 48.910156 142.875 C 48.628906 142.992188 48.382812 143.15625 48.167969 143.371094 C 47.953125 143.585938 47.789062 143.832031 47.671875 144.113281 C 47.554688 144.394531 47.496094 144.6875 47.496094 144.992188 C 47.496094 145.296875 47.554688 145.585938 47.671875 145.867188 C 47.789062 146.148438 47.953125 146.398438 48.167969 146.613281 C 48.382812 146.828125 48.628906 146.992188 48.910156 147.109375 C 49.191406 147.226562 49.484375 147.28125 49.789062 147.28125 L 120.5 147.28125 C 120.804688 147.28125 121.097656 147.226562 121.378906 147.109375 C 121.660156 146.992188 121.90625 146.828125 122.121094 146.613281 C 122.335938 146.398438 122.503906 146.148438 122.617188 145.867188 C 122.734375 145.585938 122.792969 145.296875 122.792969 144.992188 C 122.792969 144.6875 122.734375 144.394531 122.617188 144.113281 C 122.503906 143.832031 122.335938 143.585938 122.121094 143.371094 C 121.90625 143.15625 121.660156 142.992188 121.378906 142.875 C 121.097656 142.757812 120.804688 142.699219 120.5 142.699219 Z M 120.5 142.699219 " fill-opacity="1" fill-rule="nonzero"/><path fill="#ffffff" d="M 52.078125 160.707031 L 52.078125 144.992188 C 52.078125 144.6875 52.023438 144.394531 51.90625 144.113281 C 51.789062 143.832031 51.625 143.585938 51.410156 143.371094 C 51.195312 143.15625 50.945312 142.992188 50.664062 142.875 C 50.382812 142.757812 50.09375 142.699219 49.789062 142.699219 C 49.484375 142.699219 49.191406 142.757812 48.910156 142.875 C 48.628906 142.992188 48.382812 143.15625 48.167969 143.371094 C 47.953125 143.585938 47.789062 143.832031 47.671875 144.113281 C 47.554688 144.394531 47.496094 144.6875 47.496094 144.992188 L 47.496094 160.707031 C 47.496094 161.007812 47.554688 161.300781 47.671875 161.582031 C 47.789062 161.863281 47.953125 162.109375 48.167969 162.324219 C 48.382812 162.539062 48.628906 162.707031 48.910156 162.824219 C 49.191406 162.9375 49.484375 162.996094 49.789062 162.996094 C 50.09375 162.996094 50.382812 162.9375 50.664062 162.824219 C 50.945312 162.707031 51.195312 162.539062 51.410156 162.324219 C 51.625 162.109375 51.789062 161.863281 51.90625 161.582031 C 52.023438 161.300781 52.078125 161.007812 52.078125 160.707031 Z M 52.078125 160.707031 " fill-opacity="1" fill-rule="nonzero"/><path fill="#ffffff" d="M 185.976562 124.367188 L 120.5 124.367188 C 120.199219 124.367188 119.90625 124.425781 119.625 124.542969 C 119.34375 124.65625 119.097656 124.824219 118.878906 125.039062 C 118.664062 125.253906 118.5 125.5 118.382812 125.78125 C 118.269531 126.0625 118.210938 126.355469 118.210938 126.660156 C 118.210938 126.960938 118.269531 127.253906 118.382812 127.535156 C 118.5 127.816406 118.664062 128.0625 118.878906 128.277344 C 119.097656 128.492188 119.34375 128.660156 119.625 128.777344 C 119.90625 128.890625 120.199219 128.949219 120.5 128.949219 L 185.976562 128.949219 C 186.28125 128.949219 186.574219 128.890625 186.851562 128.777344 C 187.132812 128.660156 187.382812 128.492188 187.597656 128.277344 C 187.8125 128.0625 187.976562 127.816406 188.09375 127.535156 C 188.210938 127.253906 188.269531 126.960938 188.269531 126.660156 C 188.269531 126.355469 188.210938 126.0625 188.09375 125.78125 C 187.976562 125.5 187.8125 125.253906 187.597656 125.039062 C 187.382812 124.824219 187.132812 124.65625 186.851562 124.542969 C 186.574219 124.425781 186.28125 124.367188 185.976562 124.367188 Z M 185.976562 124.367188 " fill-opacity="1" fill-rule="nonzero"/><path fill="#ffffff" d="M 129.339844 122.730469 L 129.339844 104.214844 C 129.339844 96.355469 127.664062 91.433594 135.496094 86.980469 C 138.113281 85.527344 135.757812 81.558594 133.175781 83.050781 C 125.59375 87.335938 124.757812 91.707031 124.757812 99.566406 L 124.757812 122.730469 C 124.757812 123.035156 124.816406 123.324219 124.929688 123.605469 C 125.046875 123.886719 125.214844 124.136719 125.429688 124.351562 C 125.644531 124.566406 125.890625 124.730469 126.171875 124.847656 C 126.453125 124.964844 126.746094 125.019531 127.046875 125.019531 C 127.351562 125.019531 127.644531 124.964844 127.925781 124.847656 C 128.207031 124.730469 128.453125 124.566406 128.667969 124.351562 C 128.882812 124.136719 129.050781 123.886719 129.164062 123.605469 C 129.28125 123.324219 129.339844 123.035156 129.339844 122.730469 Z M 129.339844 122.730469 " fill-opacity="1" fill-rule="nonzero"/><path fill="#ffffff" d="M 143.746094 122.730469 L 143.746094 99.566406 C 143.746094 91.785156 142.933594 87.398438 135.324219 83.089844 C 132.707031 81.636719 130.441406 85.59375 133.007812 87.019531 C 140.773438 91.433594 139.160156 96.460938 139.160156 104.253906 L 139.160156 122.730469 C 139.160156 123.035156 139.21875 123.324219 139.335938 123.605469 C 139.453125 123.886719 139.617188 124.136719 139.832031 124.351562 C 140.046875 124.566406 140.296875 124.730469 140.578125 124.847656 C 140.855469 124.964844 141.148438 125.019531 141.453125 125.019531 C 141.757812 125.019531 142.050781 124.964844 142.332031 124.847656 C 142.609375 124.730469 142.859375 124.566406 143.074219 124.351562 C 143.289062 124.136719 143.453125 123.886719 143.570312 123.605469 C 143.6875 123.324219 143.746094 123.035156 143.746094 122.730469 Z M 143.746094 122.730469 " fill-opacity="1" fill-rule="nonzero"/><g clip-path="url(#e84774a9a6)"><path fill="#ffffff" d="M 135.886719 84.753906 L 135.886719 74.277344 C 135.886719 73.972656 135.828125 73.683594 135.714844 73.402344 C 135.597656 73.121094 135.429688 72.871094 135.214844 72.65625 C 135 72.441406 134.753906 72.277344 134.472656 72.160156 C 134.191406 72.042969 133.898438 71.988281 133.597656 71.988281 C 133.292969 71.988281 133 72.042969 132.71875 72.160156 C 132.4375 72.277344 132.191406 72.441406 131.976562 72.65625 C 131.761719 72.871094 131.59375 73.121094 131.480469 73.402344 C 131.363281 73.683594 131.304688 73.972656 131.304688 74.277344 L 131.304688 84.753906 C 131.304688 85.058594 131.363281 85.351562 131.480469 85.632812 C 131.59375 85.910156 131.761719 86.160156 131.976562 86.375 C 132.191406 86.589844 132.4375 86.753906 132.71875 86.871094 C 133 86.988281 133.292969 87.046875 133.597656 87.046875 C 133.898438 87.046875 134.191406 86.988281 134.472656 86.871094 C 134.753906 86.753906 135 86.589844 135.214844 86.375 C 135.429688 86.160156 135.597656 85.910156 135.714844 85.632812 C 135.828125 85.351562 135.886719 85.058594 135.886719 84.753906 Z M 135.886719 84.753906 " fill-opacity="1" fill-rule="nonzero"/></g><path fill="#ffffff" d="M 127.046875 101.449219 L 141.453125 101.449219 C 141.757812 101.449219 142.050781 101.390625 142.332031 101.277344 C 142.609375 101.160156 142.859375 100.992188 143.074219 100.777344 C 143.289062 100.5625 143.453125 100.316406 143.570312 100.035156 C 143.6875 99.753906 143.746094 99.460938 143.746094 99.160156 C 143.746094 98.855469 143.6875 98.5625 143.570312 98.28125 C 143.453125 98 143.289062 97.753906 143.074219 97.539062 C 142.859375 97.324219 142.609375 97.15625 142.332031 97.042969 C 142.050781 96.925781 141.757812 96.867188 141.453125 96.867188 L 127.046875 96.867188 C 126.746094 96.867188 126.453125 96.925781 126.171875 97.042969 C 125.890625 97.15625 125.644531 97.324219 125.429688 97.539062 C 125.214844 97.753906 125.046875 98 124.929688 98.28125 C 124.816406 98.5625 124.757812 98.855469 124.757812 99.160156 C 124.757812 99.460938 124.816406 99.753906 124.929688 100.035156 C 125.046875 100.316406 125.214844 100.5625 125.429688 100.777344 C 125.644531 100.992188 125.890625 101.160156 126.171875 101.277344 C 126.453125 101.390625 126.746094 101.449219 127.046875 101.449219 Z M 127.046875 101.449219 " fill-opacity="1" fill-rule="nonzero"/><g clip-path="url(#f39829702d)"><path fill="#ffffff" d="M 74.339844 300.820312 L 74.339844 244.511719 C 74.339844 244.210938 74.285156 243.917969 74.167969 243.636719 C 74.050781 243.355469 73.886719 243.109375 73.671875 242.894531 C 73.457031 242.679688 73.207031 242.511719 72.925781 242.394531 C 72.644531 242.28125 72.355469 242.222656 72.050781 242.222656 C 71.746094 242.222656 71.453125 242.28125 71.171875 242.394531 C 70.890625 242.511719 70.644531 242.679688 70.429688 242.894531 C 70.214844 243.109375 70.050781 243.355469 69.933594 243.636719 C 69.816406 243.917969 69.757812 244.210938 69.757812 244.511719 L 69.757812 300.820312 C 69.757812 301.125 69.816406 301.417969 69.933594 301.699219 C 70.050781 301.980469 70.214844 302.226562 70.429688 302.441406 C 70.644531 302.65625 70.890625 302.824219 71.171875 302.9375 C 71.453125 303.054688 71.746094 303.113281 72.050781 303.113281 C 72.355469 303.113281 72.644531 303.054688 72.925781 302.9375 C 73.207031 302.824219 73.457031 302.65625 73.671875 302.441406 C 73.886719 302.226562 74.050781 301.980469 74.167969 301.699219 C 74.285156 301.417969 74.339844 301.125 74.339844 300.820312 Z M 74.339844 300.820312 " fill-opacity="1" fill-rule="nonzero"/></g><g clip-path="url(#df50ca22b0)"><path fill="#ffffff" d="M 111.007812 300.820312 L 111.007812 244.511719 C 111.007812 244.210938 110.949219 243.917969 110.832031 243.636719 C 110.714844 243.355469 110.550781 243.109375 110.335938 242.894531 C 110.121094 242.679688 109.875 242.511719 109.59375 242.394531 C 109.3125 242.28125 109.019531 242.222656 108.714844 242.222656 C 108.410156 242.222656 108.121094 242.28125 107.839844 242.394531 C 107.558594 242.511719 107.308594 242.679688 107.09375 242.894531 C 106.878906 243.109375 106.714844 243.355469 106.597656 243.636719 C 106.480469 243.917969 106.425781 244.210938 106.425781 244.511719 L 106.425781 300.820312 C 106.425781 301.125 106.480469 301.417969 106.597656 301.699219 C 106.714844 301.980469 106.878906 302.226562 107.09375 302.441406 C 107.308594 302.65625 107.558594 302.824219 107.839844 302.9375 C 108.121094 303.054688 108.410156 303.113281 108.714844 303.113281 C 109.019531 303.113281 109.3125 303.054688 109.59375 302.9375 C 109.875 302.824219 110.121094 302.65625 110.335938 302.441406 C 110.550781 302.226562 110.714844 301.980469 110.832031 301.699219 C 110.949219 301.417969 111.007812 301.125 111.007812 300.820312 Z M 111.007812 300.820312 " fill-opacity="1" fill-rule="nonzero"/></g><path fill="#ffffff" d="M 89.648438 214.304688 C 78.78125 220.066406 69.15625 231.40625 70.308594 244.511719 C 70.316406 244.816406 70.378906 245.105469 70.496094 245.382812 C 70.613281 245.660156 70.78125 245.90625 70.992188 246.117188 C 71.207031 246.332031 71.453125 246.5 71.730469 246.617188 C 72.007812 246.734375 72.296875 246.796875 72.601562 246.804688 L 108.714844 246.804688 C 109.019531 246.804688 109.3125 246.746094 109.59375 246.628906 C 109.875 246.515625 110.121094 246.347656 110.335938 246.132812 C 110.550781 245.917969 110.714844 245.671875 110.832031 245.390625 C 110.949219 245.109375 111.007812 244.816406 111.007812 244.511719 C 111.007812 244.210938 110.949219 243.917969 110.832031 243.636719 C 110.714844 243.355469 110.550781 243.109375 110.335938 242.894531 C 110.121094 242.679688 109.875 242.511719 109.59375 242.394531 C 109.3125 242.28125 109.019531 242.222656 108.714844 242.222656 L 72.585938 242.222656 L 74.878906 244.511719 C 73.855469 232.9375 82.394531 223.339844 91.902344 218.324219 C 94.519531 216.933594 92.191406 212.980469 89.582031 214.394531 Z M 89.648438 214.304688 " fill-opacity="1" fill-rule="nonzero"/><path fill="#ffffff" d="M 89.597656 218.257812 C 99.15625 223.324219 107.695312 232.9375 106.621094 244.449219 L 108.914062 242.15625 L 72.050781 242.15625 C 71.746094 242.15625 71.453125 242.214844 71.171875 242.332031 C 70.890625 242.445312 70.644531 242.613281 70.429688 242.828125 C 70.214844 243.042969 70.050781 243.289062 69.933594 243.570312 C 69.816406 243.851562 69.757812 244.144531 69.757812 244.449219 C 69.757812 244.75 69.816406 245.042969 69.933594 245.324219 C 70.050781 245.605469 70.214844 245.851562 70.429688 246.066406 C 70.644531 246.28125 70.890625 246.449219 71.171875 246.566406 C 71.453125 246.679688 71.746094 246.738281 72.050781 246.738281 L 108.964844 246.738281 C 109.265625 246.734375 109.554688 246.671875 109.832031 246.550781 C 110.109375 246.433594 110.355469 246.265625 110.570312 246.054688 C 110.785156 245.839844 110.949219 245.59375 111.066406 245.316406 C 111.1875 245.039062 111.25 244.75 111.257812 244.449219 C 112.410156 231.351562 102.785156 220 91.914062 214.238281 C 89.296875 212.863281 86.992188 216.855469 89.597656 218.167969 Z M 89.597656 218.257812 " fill-opacity="1" fill-rule="nonzero"/><g clip-path="url(#16e128a85d)"><path fill="#ffffff" d="M 83.507812 300.820312 L 83.507812 276.714844 C 83.507812 268.242188 81.269531 259.507812 90.933594 255.683594 C 93.644531 254.609375 92.464844 250.171875 89.714844 251.269531 C 80.207031 255.027344 78.925781 262.0625 78.925781 270.914062 L 78.925781 300.796875 C 78.925781 301.097656 78.984375 301.390625 79.097656 301.671875 C 79.214844 301.953125 79.382812 302.199219 79.597656 302.417969 C 79.8125 302.632812 80.058594 302.796875 80.339844 302.914062 C 80.621094 303.027344 80.914062 303.085938 81.214844 303.085938 C 81.519531 303.085938 81.8125 303.027344 82.09375 302.914062 C 82.375 302.796875 82.621094 302.632812 82.835938 302.417969 C 83.050781 302.199219 83.21875 301.953125 83.332031 301.671875 C 83.449219 301.390625 83.507812 301.097656 83.507812 300.796875 Z M 83.507812 300.820312 " fill-opacity="1" fill-rule="nonzero"/></g><g clip-path="url(#4a2e54e718)"><path fill="#ffffff" d="M 103.148438 300.820312 L 103.148438 270.9375 C 103.148438 262.0625 101.839844 255.027344 92.359375 251.296875 C 89.625 250.210938 88.429688 254.636719 91.140625 255.710938 C 100.78125 259.519531 98.566406 268.242188 98.566406 276.738281 L 98.566406 300.847656 C 98.566406 301.152344 98.625 301.445312 98.742188 301.726562 C 98.859375 302.003906 99.023438 302.253906 99.238281 302.46875 C 99.453125 302.683594 99.699219 302.847656 99.980469 302.964844 C 100.261719 303.082031 100.554688 303.140625 100.859375 303.140625 C 101.164062 303.140625 101.453125 303.082031 101.734375 302.964844 C 102.015625 302.847656 102.265625 302.683594 102.480469 302.46875 C 102.695312 302.253906 102.859375 302.003906 102.976562 301.726562 C 103.09375 301.445312 103.148438 301.152344 103.148438 300.847656 Z M 103.148438 300.820312 " fill-opacity="1" fill-rule="nonzero"/></g><path fill="#ffffff" d="M 141.453125 114.546875 L 185.976562 114.546875 C 186.28125 114.546875 186.574219 114.488281 186.851562 114.371094 C 187.132812 114.253906 187.382812 114.089844 187.597656 113.875 C 187.8125 113.660156 187.976562 113.410156 188.09375 113.128906 C 188.210938 112.851562 188.269531 112.558594 188.269531 112.253906 C 188.269531 111.949219 188.210938 111.65625 188.09375 111.375 C 187.976562 111.097656 187.8125 110.847656 187.597656 110.632812 C 187.382812 110.417969 187.132812 110.253906 186.851562 110.136719 C 186.574219 110.019531 186.28125 109.960938 185.976562 109.960938 L 141.453125 109.960938 C 141.148438 109.960938 140.855469 110.019531 140.578125 110.136719 C 140.296875 110.253906 140.046875 110.417969 139.832031 110.632812 C 139.617188 110.847656 139.453125 111.097656 139.335938 111.375 C 139.21875 111.65625 139.160156 111.949219 139.160156 112.253906 C 139.160156 112.558594 139.21875 112.851562 139.335938 113.128906 C 139.453125 113.410156 139.617188 113.660156 139.832031 113.875 C 140.046875 114.089844 140.296875 114.253906 140.578125 114.371094 C 140.855469 114.488281 141.148438 114.546875 141.453125 114.546875 Z M 141.453125 114.546875 " fill-opacity="1" fill-rule="nonzero"/><path fill="#ffffff" d="M 144.074219 185.257812 L 185.976562 185.257812 C 186.28125 185.257812 186.574219 185.199219 186.851562 185.085938 C 187.132812 184.96875 187.382812 184.800781 187.597656 184.585938 C 187.8125 184.371094 187.976562 184.125 188.09375 183.84375 C 188.210938 183.5625 188.269531 183.269531 188.269531 182.96875 C 188.269531 182.664062 188.210938 182.371094 188.09375 182.089844 C 187.976562 181.808594 187.8125 181.5625 187.597656 181.347656 C 187.382812 181.132812 187.132812 180.964844 186.851562 180.851562 C 186.574219 180.734375 186.28125 180.675781 185.976562 180.675781 L 144.074219 180.675781 C 143.769531 180.675781 143.476562 180.734375 143.195312 180.851562 C 142.914062 180.964844 142.667969 181.132812 142.453125 181.347656 C 142.238281 181.5625 142.070312 181.808594 141.953125 182.089844 C 141.839844 182.371094 141.78125 182.664062 141.78125 182.96875 C 141.78125 183.269531 141.839844 183.5625 141.953125 183.84375 C 142.070312 184.125 142.238281 184.371094 142.453125 184.585938 C 142.667969 184.800781 142.914062 184.96875 143.195312 185.085938 C 143.476562 185.199219 143.769531 185.257812 144.074219 185.257812 Z M 144.074219 185.257812 " fill-opacity="1" fill-rule="nonzero"/><path fill="#ffffff" d="M 157.496094 160.707031 L 157.496094 182.96875 C 157.496094 183.269531 157.554688 183.5625 157.667969 183.84375 C 157.785156 184.125 157.949219 184.371094 158.164062 184.585938 C 158.378906 184.800781 158.628906 184.96875 158.910156 185.085938 C 159.191406 185.199219 159.480469 185.257812 159.785156 185.257812 C 160.089844 185.257812 160.382812 185.199219 160.664062 185.085938 C 160.945312 184.96875 161.191406 184.800781 161.40625 184.585938 C 161.621094 184.371094 161.789062 184.125 161.902344 183.84375 C 162.019531 183.5625 162.078125 183.269531 162.078125 182.96875 L 162.078125 160.707031 C 162.078125 160.402344 162.019531 160.109375 161.902344 159.828125 C 161.789062 159.546875 161.621094 159.300781 161.40625 159.085938 C 161.191406 158.871094 160.945312 158.703125 160.664062 158.589844 C 160.382812 158.472656 160.089844 158.414062 159.785156 158.414062 C 159.480469 158.414062 159.191406 158.472656 158.910156 158.589844 C 158.628906 158.703125 158.378906 158.871094 158.164062 159.085938 C 157.949219 159.300781 157.785156 159.546875 157.667969 159.828125 C 157.554688 160.109375 157.496094 160.402344 157.496094 160.707031 Z M 157.496094 160.707031 " fill-opacity="1" fill-rule="nonzero"/><path fill="#ffffff" d="M 170.589844 160.707031 L 170.589844 181.65625 C 170.589844 181.960938 170.648438 182.253906 170.765625 182.535156 C 170.878906 182.816406 171.046875 183.0625 171.261719 183.277344 C 171.476562 183.492188 171.722656 183.65625 172.003906 183.773438 C 172.285156 183.890625 172.578125 183.949219 172.882812 183.949219 C 173.183594 183.949219 173.476562 183.890625 173.757812 183.773438 C 174.039062 183.65625 174.285156 183.492188 174.5 183.277344 C 174.714844 183.0625 174.882812 182.816406 175 182.535156 C 175.113281 182.253906 175.171875 181.960938 175.171875 181.65625 L 175.171875 160.707031 C 175.171875 160.402344 175.113281 160.109375 175 159.828125 C 174.882812 159.546875 174.714844 159.300781 174.5 159.085938 C 174.285156 158.871094 174.039062 158.703125 173.757812 158.589844 C 173.476562 158.472656 173.183594 158.414062 172.882812 158.414062 C 172.578125 158.414062 172.285156 158.472656 172.003906 158.589844 C 171.722656 158.703125 171.476562 158.871094 171.261719 159.085938 C 171.046875 159.300781 170.878906 159.546875 170.765625 159.828125 C 170.648438 160.109375 170.589844 160.402344 170.589844 160.707031 Z M 170.589844 160.707031 " fill-opacity="1" fill-rule="nonzero"/><path fill="#ffffff" d="M 184.996094 160.707031 L 184.996094 181.65625 C 184.996094 181.960938 185.050781 182.253906 185.167969 182.535156 C 185.285156 182.816406 185.449219 183.0625 185.664062 183.277344 C 185.878906 183.492188 186.128906 183.65625 186.410156 183.773438 C 186.691406 183.890625 186.980469 183.949219 187.285156 183.949219 C 187.589844 183.949219 187.882812 183.890625 188.164062 183.773438 C 188.445312 183.65625 188.691406 183.492188 188.90625 183.277344 C 189.121094 183.0625 189.285156 182.816406 189.402344 182.535156 C 189.519531 182.253906 189.578125 181.960938 189.578125 181.65625 L 189.578125 160.707031 C 189.578125 160.402344 189.519531 160.109375 189.402344 159.828125 C 189.285156 159.546875 189.121094 159.300781 188.90625 159.085938 C 188.691406 158.871094 188.445312 158.703125 188.164062 158.589844 C 187.882812 158.472656 187.589844 158.414062 187.285156 158.414062 C 186.980469 158.414062 186.691406 158.472656 186.410156 158.589844 C 186.128906 158.703125 185.878906 158.871094 185.664062 159.085938 C 185.449219 159.300781 185.285156 159.546875 185.167969 159.828125 C 185.050781 160.109375 184.996094 160.402344 184.996094 160.707031 Z M 184.996094 160.707031 " fill-opacity="1" fill-rule="nonzero"/><g clip-path="url(#09b9d27ed4)"><path fill="#ffffff" d="M 156.839844 300.820312 L 156.839844 247.945312 C 156.839844 227.449219 169.726562 213.398438 187.574219 203.996094 C 190.191406 202.621094 187.875 198.667969 185.257812 200.070312 C 167.667969 209.339844 152.203125 224.597656 152.242188 245.535156 C 152.242188 263.972656 152.242188 282.410156 152.242188 300.847656 C 152.242188 301.152344 152.300781 301.445312 152.417969 301.726562 C 152.535156 302.003906 152.699219 302.253906 152.914062 302.46875 C 153.128906 302.683594 153.378906 302.847656 153.660156 302.964844 C 153.9375 303.082031 154.230469 303.140625 154.535156 303.140625 C 154.839844 303.140625 155.132812 303.082031 155.414062 302.964844 C 155.691406 302.847656 155.941406 302.683594 156.15625 302.46875 C 156.371094 302.253906 156.535156 302.003906 156.652344 301.726562 C 156.769531 301.445312 156.828125 301.152344 156.828125 300.847656 Z M 156.839844 300.820312 " fill-opacity="1" fill-rule="nonzero"/></g><g clip-path="url(#85202327fc)"><path fill="#ffffff" d="M 335.257812 298.53125 L 187.285156 298.53125 C 186.980469 298.53125 186.691406 298.589844 186.410156 298.703125 C 186.128906 298.820312 185.878906 298.988281 185.664062 299.203125 C 185.449219 299.417969 185.285156 299.664062 185.167969 299.945312 C 185.050781 300.226562 184.996094 300.519531 184.996094 300.820312 C 184.996094 301.125 185.050781 301.417969 185.167969 301.699219 C 185.285156 301.980469 185.449219 302.226562 185.664062 302.441406 C 185.878906 302.65625 186.128906 302.824219 186.410156 302.9375 C 186.691406 303.054688 186.980469 303.113281 187.285156 303.113281 L 335.257812 303.113281 C 335.5625 303.113281 335.855469 303.054688 336.136719 302.9375 C 336.417969 302.824219 336.664062 302.65625 336.878906 302.441406 C 337.09375 302.226562 337.261719 301.980469 337.375 301.699219 C 337.492188 301.417969 337.550781 301.125 337.550781 300.820312 C 337.550781 300.519531 337.492188 300.226562 337.375 299.945312 C 337.261719 299.664062 337.09375 299.417969 336.878906 299.203125 C 336.664062 298.988281 336.417969 298.820312 336.136719 298.703125 C 335.855469 298.589844 335.5625 298.53125 335.257812 298.53125 Z M 335.257812 298.53125 " fill-opacity="1" fill-rule="nonzero"/></g><g clip-path="url(#9673f96065)"><path fill="#ffffff" d="M 320.527344 300.820312 L 320.527344 197.371094 C 320.527344 197.066406 320.46875 196.773438 320.351562 196.496094 C 320.238281 196.214844 320.070312 195.964844 319.855469 195.75 C 319.640625 195.535156 319.394531 195.371094 319.113281 195.253906 C 318.832031 195.136719 318.539062 195.078125 318.234375 195.078125 C 317.933594 195.078125 317.640625 195.136719 317.359375 195.253906 C 317.078125 195.371094 316.832031 195.535156 316.617188 195.75 C 316.402344 195.964844 316.234375 196.214844 316.117188 196.496094 C 316.003906 196.773438 315.945312 197.066406 315.945312 197.371094 L 315.945312 300.820312 C 315.945312 301.125 316.003906 301.417969 316.117188 301.699219 C 316.234375 301.980469 316.402344 302.226562 316.617188 302.441406 C 316.832031 302.65625 317.078125 302.824219 317.359375 302.9375 C 317.640625 303.054688 317.933594 303.113281 318.234375 303.113281 C 318.539062 303.113281 318.832031 303.054688 319.113281 302.9375 C 319.394531 302.824219 319.640625 302.65625 319.855469 302.441406 C 320.070312 302.226562 320.238281 301.980469 320.351562 301.699219 C 320.46875 301.417969 320.527344 301.125 320.527344 300.820312 Z M 320.527344 300.820312 " fill-opacity="1" fill-rule="nonzero"/></g><path fill="#ffffff" d="M 320.527344 182.96875 L 320.527344 160.707031 C 320.527344 160.402344 320.46875 160.109375 320.351562 159.828125 C 320.238281 159.546875 320.070312 159.300781 319.855469 159.085938 C 319.640625 158.871094 319.394531 158.703125 319.113281 158.589844 C 318.832031 158.472656 318.539062 158.414062 318.234375 158.414062 C 317.933594 158.414062 317.640625 158.472656 317.359375 158.589844 C 317.078125 158.703125 316.832031 158.871094 316.617188 159.085938 C 316.402344 159.300781 316.234375 159.546875 316.117188 159.828125 C 316.003906 160.109375 315.945312 160.402344 315.945312 160.707031 L 315.945312 182.96875 C 315.945312 183.269531 316.003906 183.5625 316.117188 183.84375 C 316.234375 184.125 316.402344 184.371094 316.617188 184.585938 C 316.832031 184.800781 317.078125 184.96875 317.359375 185.085938 C 317.640625 185.199219 317.933594 185.257812 318.234375 185.257812 C 318.539062 185.257812 318.832031 185.199219 319.113281 185.085938 C 319.394531 184.96875 319.640625 184.800781 319.855469 184.585938 C 320.070312 184.371094 320.238281 184.125 320.351562 183.84375 C 320.46875 183.5625 320.527344 183.269531 320.527344 182.96875 Z M 320.527344 182.96875 " fill-opacity="1" fill-rule="nonzero"/><g clip-path="url(#967c13b055)"><path fill="#ffffff" d="M 255.050781 300.820312 L 255.050781 126.660156 C 255.050781 126.355469 254.996094 126.0625 254.878906 125.78125 C 254.761719 125.5 254.597656 125.253906 254.382812 125.039062 C 254.167969 124.824219 253.917969 124.65625 253.636719 124.542969 C 253.355469 124.425781 253.066406 124.367188 252.761719 124.367188 C 252.457031 124.367188 252.164062 124.425781 251.882812 124.542969 C 251.601562 124.65625 251.355469 124.824219 251.140625 125.039062 C 250.925781 125.253906 250.761719 125.5 250.644531 125.78125 C 250.527344 126.0625 250.46875 126.355469 250.46875 126.660156 L 250.46875 300.820312 C 250.46875 301.125 250.527344 301.417969 250.644531 301.699219 C 250.761719 301.980469 250.925781 302.226562 251.140625 302.441406 C 251.355469 302.65625 251.601562 302.824219 251.882812 302.9375 C 252.164062 303.054688 252.457031 303.113281 252.761719 303.113281 C 253.066406 303.113281 253.355469 303.054688 253.636719 302.9375 C 253.917969 302.824219 254.167969 302.65625 254.382812 302.441406 C 254.597656 302.226562 254.761719 301.980469 254.878906 301.699219 C 254.996094 301.417969 255.050781 301.125 255.050781 300.820312 Z M 255.050781 300.820312 " fill-opacity="1" fill-rule="nonzero"/></g><g clip-path="url(#41b5ca9a65)"><path fill="#ffffff" d="M 231.480469 300.820312 L 231.480469 126.660156 C 231.480469 126.355469 231.421875 126.0625 231.308594 125.78125 C 231.191406 125.5 231.023438 125.253906 230.808594 125.039062 C 230.59375 124.824219 230.347656 124.65625 230.066406 124.542969 C 229.785156 124.425781 229.492188 124.367188 229.191406 124.367188 C 228.886719 124.367188 228.59375 124.425781 228.3125 124.542969 C 228.03125 124.65625 227.785156 124.824219 227.570312 125.039062 C 227.355469 125.253906 227.1875 125.5 227.074219 125.78125 C 226.957031 126.0625 226.898438 126.355469 226.898438 126.660156 L 226.898438 300.820312 C 226.898438 301.125 226.957031 301.417969 227.074219 301.699219 C 227.1875 301.980469 227.355469 302.226562 227.570312 302.441406 C 227.785156 302.65625 228.03125 302.824219 228.3125 302.9375 C 228.59375 303.054688 228.886719 303.113281 229.191406 303.113281 C 229.492188 303.113281 229.785156 303.054688 230.066406 302.9375 C 230.347656 302.824219 230.59375 302.65625 230.808594 302.441406 C 231.023438 302.226562 231.191406 301.980469 231.308594 301.699219 C 231.421875 301.417969 231.480469 301.125 231.480469 300.820312 Z M 231.480469 300.820312 " fill-opacity="1" fill-rule="nonzero"/></g><path fill="#ffffff" d="M 229.191406 199.664062 L 324.785156 199.664062 C 325.085938 199.664062 325.378906 199.605469 325.660156 199.488281 C 325.941406 199.371094 326.1875 199.207031 326.402344 198.992188 C 326.617188 198.777344 326.785156 198.527344 326.902344 198.25 C 327.015625 197.96875 327.074219 197.675781 327.074219 197.371094 C 327.074219 197.066406 327.015625 196.773438 326.902344 196.496094 C 326.785156 196.214844 326.617188 195.964844 326.402344 195.75 C 326.1875 195.535156 325.941406 195.371094 325.660156 195.253906 C 325.378906 195.136719 325.085938 195.078125 324.785156 195.078125 L 229.191406 195.078125 C 228.886719 195.078125 228.59375 195.136719 228.3125 195.253906 C 228.03125 195.371094 227.785156 195.535156 227.570312 195.75 C 227.355469 195.964844 227.1875 196.214844 227.074219 196.496094 C 226.957031 196.773438 226.898438 197.066406 226.898438 197.371094 C 226.898438 197.675781 226.957031 197.96875 227.074219 198.25 C 227.1875 198.527344 227.355469 198.777344 227.570312 198.992188 C 227.785156 199.207031 228.03125 199.371094 228.3125 199.488281 C 228.59375 199.605469 228.886719 199.664062 229.191406 199.664062 Z M 229.191406 199.664062 " fill-opacity="1" fill-rule="nonzero"/><path fill="#ffffff" d="M 230.5 185.257812 L 330.019531 185.257812 C 330.324219 185.257812 330.617188 185.199219 330.898438 185.085938 C 331.179688 184.96875 331.425781 184.800781 331.640625 184.585938 C 331.855469 184.371094 332.023438 184.125 332.136719 183.84375 C 332.253906 183.5625 332.3125 183.269531 332.3125 182.96875 C 332.3125 182.664062 332.253906 182.371094 332.136719 182.089844 C 332.023438 181.808594 331.855469 181.5625 331.640625 181.347656 C 331.425781 181.132812 331.179688 180.964844 330.898438 180.851562 C 330.617188 180.734375 330.324219 180.675781 330.019531 180.675781 L 230.5 180.675781 C 230.195312 180.675781 229.902344 180.734375 229.621094 180.851562 C 229.339844 180.964844 229.09375 181.132812 228.878906 181.347656 C 228.664062 181.5625 228.5 181.808594 228.382812 182.089844 C 228.265625 182.371094 228.207031 182.664062 228.207031 182.96875 C 228.207031 183.269531 228.265625 183.5625 228.382812 183.84375 C 228.5 184.125 228.664062 184.371094 228.878906 184.585938 C 229.09375 184.800781 229.339844 184.96875 229.621094 185.085938 C 229.902344 185.199219 230.195312 185.257812 230.5 185.257812 Z M 230.5 185.257812 " fill-opacity="1" fill-rule="nonzero"/><path fill="#ffffff" d="M 327.257812 198.078125 L 332.71875 183.503906 C 333.753906 180.742188 329.328125 179.574219 328.304688 182.285156 L 322.832031 196.859375 C 321.796875 199.625 326.222656 200.789062 327.246094 198.078125 Z M 327.257812 198.078125 " fill-opacity="1" fill-rule="nonzero"/><path fill="#ffffff" d="M 184.667969 162.996094 L 323.472656 162.996094 C 323.777344 162.996094 324.070312 162.9375 324.351562 162.824219 C 324.632812 162.707031 324.878906 162.539062 325.09375 162.324219 C 325.308594 162.109375 325.476562 161.863281 325.589844 161.582031 C 325.707031 161.300781 325.765625 161.007812 325.765625 160.707031 C 325.765625 160.402344 325.707031 160.109375 325.589844 159.828125 C 325.476562 159.546875 325.308594 159.300781 325.09375 159.085938 C 324.878906 158.871094 324.632812 158.703125 324.351562 158.589844 C 324.070312 158.472656 323.777344 158.414062 323.472656 158.414062 L 184.667969 158.414062 C 184.363281 158.414062 184.070312 158.472656 183.789062 158.589844 C 183.507812 158.703125 183.261719 158.871094 183.046875 159.085938 C 182.832031 159.300781 182.664062 159.546875 182.550781 159.828125 C 182.433594 160.109375 182.375 160.402344 182.375 160.707031 C 182.375 161.007812 182.433594 161.300781 182.550781 161.582031 C 182.664062 161.863281 182.832031 162.109375 183.046875 162.324219 C 183.261719 162.539062 183.507812 162.707031 183.789062 162.824219 C 184.070312 162.9375 184.363281 162.996094 184.667969 162.996094 Z M 184.667969 162.996094 " fill-opacity="1" fill-rule="nonzero"/><path fill="#ffffff" d="M 252.761719 147.28125 L 323.472656 147.28125 C 323.777344 147.28125 324.070312 147.226562 324.351562 147.109375 C 324.632812 146.992188 324.878906 146.828125 325.09375 146.613281 C 325.308594 146.398438 325.476562 146.148438 325.589844 145.867188 C 325.707031 145.585938 325.765625 145.296875 325.765625 144.992188 C 325.765625 144.6875 325.707031 144.394531 325.589844 144.113281 C 325.476562 143.832031 325.308594 143.585938 325.09375 143.371094 C 324.878906 143.15625 324.632812 142.992188 324.351562 142.875 C 324.070312 142.757812 323.777344 142.699219 323.472656 142.699219 L 252.761719 142.699219 C 252.457031 142.699219 252.164062 142.757812 251.882812 142.875 C 251.601562 142.992188 251.355469 143.15625 251.140625 143.371094 C 250.925781 143.585938 250.761719 143.832031 250.644531 144.113281 C 250.527344 144.394531 250.46875 144.6875 250.46875 144.992188 C 250.46875 145.296875 250.527344 145.585938 250.644531 145.867188 C 250.761719 146.148438 250.925781 146.398438 251.140625 146.613281 C 251.355469 146.828125 251.601562 146.992188 251.882812 147.109375 C 252.164062 147.226562 252.457031 147.28125 252.761719 147.28125 Z M 252.761719 147.28125 " fill-opacity="1" fill-rule="nonzero"/><path fill="#ffffff" d="M 325.765625 160.707031 L 325.765625 144.992188 C 325.765625 144.6875 325.707031 144.394531 325.589844 144.113281 C 325.476562 143.832031 325.308594 143.585938 325.09375 143.371094 C 324.878906 143.15625 324.632812 142.992188 324.351562 142.875 C 324.070312 142.757812 323.777344 142.699219 323.472656 142.699219 C 323.167969 142.699219 322.878906 142.757812 322.597656 142.875 C 322.316406 142.992188 322.066406 143.15625 321.851562 143.371094 C 321.636719 143.585938 321.472656 143.832031 321.355469 144.113281 C 321.242188 144.394531 321.183594 144.6875 321.183594 144.992188 L 321.183594 160.707031 C 321.183594 161.007812 321.242188 161.300781 321.355469 161.582031 C 321.472656 161.863281 321.636719 162.109375 321.851562 162.324219 C 322.066406 162.539062 322.316406 162.707031 322.597656 162.824219 C 322.878906 162.9375 323.167969 162.996094 323.472656 162.996094 C 323.777344 162.996094 324.070312 162.9375 324.351562 162.824219 C 324.632812 162.707031 324.878906 162.539062 325.09375 162.324219 C 325.308594 162.109375 325.476562 161.863281 325.589844 161.582031 C 325.707031 161.300781 325.765625 161.007812 325.765625 160.707031 Z M 325.765625 160.707031 " fill-opacity="1" fill-rule="nonzero"/><path fill="#ffffff" d="M 187.285156 128.949219 L 252.761719 128.949219 C 253.066406 128.949219 253.355469 128.890625 253.636719 128.777344 C 253.917969 128.660156 254.167969 128.492188 254.382812 128.277344 C 254.597656 128.0625 254.761719 127.816406 254.878906 127.535156 C 254.996094 127.253906 255.050781 126.960938 255.050781 126.660156 C 255.050781 126.355469 254.996094 126.0625 254.878906 125.78125 C 254.761719 125.5 254.597656 125.253906 254.382812 125.039062 C 254.167969 124.824219 253.917969 124.65625 253.636719 124.542969 C 253.355469 124.425781 253.066406 124.367188 252.761719 124.367188 L 187.285156 124.367188 C 186.980469 124.367188 186.691406 124.425781 186.410156 124.542969 C 186.128906 124.65625 185.878906 124.824219 185.664062 125.039062 C 185.449219 125.253906 185.285156 125.5 185.167969 125.78125 C 185.050781 126.0625 184.996094 126.355469 184.996094 126.660156 C 184.996094 126.960938 185.050781 127.253906 185.167969 127.535156 C 185.285156 127.816406 185.449219 128.0625 185.664062 128.277344 C 185.878906 128.492188 186.128906 128.660156 186.410156 128.777344 C 186.691406 128.890625 186.980469 128.949219 187.285156 128.949219 Z M 187.285156 128.949219 " fill-opacity="1" fill-rule="nonzero"/><path fill="#ffffff" d="M 248.503906 122.730469 L 248.503906 99.566406 C 248.503906 91.785156 247.691406 87.398438 240.085938 83.089844 C 237.464844 81.636719 235.199219 85.59375 237.765625 87.019531 C 245.53125 91.433594 243.921875 96.460938 243.921875 104.253906 L 243.921875 122.730469 C 243.921875 123.035156 243.980469 123.324219 244.097656 123.605469 C 244.210938 123.886719 244.378906 124.136719 244.59375 124.351562 C 244.808594 124.566406 245.054688 124.730469 245.335938 124.847656 C 245.617188 124.964844 245.910156 125.019531 246.214844 125.019531 C 246.515625 125.019531 246.808594 124.964844 247.089844 124.847656 C 247.371094 124.730469 247.617188 124.566406 247.832031 124.351562 C 248.046875 124.136719 248.214844 123.886719 248.332031 123.605469 C 248.445312 123.324219 248.503906 123.035156 248.503906 122.730469 Z M 248.503906 122.730469 " fill-opacity="1" fill-rule="nonzero"/><path fill="#ffffff" d="M 234.101562 122.730469 L 234.101562 104.214844 C 234.101562 96.355469 232.425781 91.433594 240.253906 86.980469 C 242.875 85.527344 240.515625 81.558594 237.9375 83.050781 C 230.355469 87.347656 229.515625 91.761719 229.515625 99.527344 L 229.515625 122.730469 C 229.515625 123.035156 229.574219 123.324219 229.691406 123.605469 C 229.808594 123.886719 229.972656 124.136719 230.1875 124.351562 C 230.402344 124.566406 230.652344 124.730469 230.933594 124.847656 C 231.210938 124.964844 231.503906 125.019531 231.808594 125.019531 C 232.113281 125.019531 232.40625 124.964844 232.6875 124.847656 C 232.964844 124.730469 233.214844 124.566406 233.429688 124.351562 C 233.644531 124.136719 233.808594 123.886719 233.925781 123.605469 C 234.042969 123.324219 234.101562 123.035156 234.101562 122.730469 Z M 234.101562 122.730469 " fill-opacity="1" fill-rule="nonzero"/><g clip-path="url(#aa2bdf0635)"><path fill="#ffffff" d="M 241.957031 84.753906 L 241.957031 74.277344 C 241.957031 73.972656 241.898438 73.683594 241.78125 73.402344 C 241.667969 73.121094 241.5 72.871094 241.285156 72.65625 C 241.070312 72.441406 240.824219 72.277344 240.542969 72.160156 C 240.261719 72.042969 239.96875 71.988281 239.664062 71.988281 C 239.363281 71.988281 239.070312 72.042969 238.789062 72.160156 C 238.507812 72.277344 238.261719 72.441406 238.046875 72.65625 C 237.832031 72.871094 237.664062 73.121094 237.546875 73.402344 C 237.433594 73.683594 237.375 73.972656 237.375 74.277344 L 237.375 84.753906 C 237.375 85.058594 237.433594 85.351562 237.546875 85.632812 C 237.664062 85.910156 237.832031 86.160156 238.046875 86.375 C 238.261719 86.589844 238.507812 86.753906 238.789062 86.871094 C 239.070312 86.988281 239.363281 87.046875 239.664062 87.046875 C 239.96875 87.046875 240.261719 86.988281 240.542969 86.871094 C 240.824219 86.753906 241.070312 86.589844 241.285156 86.375 C 241.5 86.160156 241.667969 85.910156 241.78125 85.632812 C 241.898438 85.351562 241.957031 85.058594 241.957031 84.753906 Z M 241.957031 84.753906 " fill-opacity="1" fill-rule="nonzero"/></g><path fill="#ffffff" d="M 246.214844 96.867188 L 231.808594 96.867188 C 231.503906 96.867188 231.210938 96.925781 230.933594 97.042969 C 230.652344 97.15625 230.402344 97.324219 230.1875 97.539062 C 229.972656 97.753906 229.808594 98 229.691406 98.28125 C 229.574219 98.5625 229.515625 98.855469 229.515625 99.160156 C 229.515625 99.460938 229.574219 99.753906 229.691406 100.035156 C 229.808594 100.316406 229.972656 100.5625 230.1875 100.777344 C 230.402344 100.992188 230.652344 101.160156 230.933594 101.277344 C 231.210938 101.390625 231.503906 101.449219 231.808594 101.449219 L 246.214844 101.449219 C 246.515625 101.449219 246.808594 101.390625 247.089844 101.277344 C 247.371094 101.160156 247.617188 100.992188 247.832031 100.777344 C 248.046875 100.5625 248.214844 100.316406 248.332031 100.035156 C 248.445312 99.753906 248.503906 99.460938 248.503906 99.160156 C 248.503906 98.855469 248.445312 98.5625 248.332031 98.28125 C 248.214844 98 248.046875 97.753906 247.832031 97.539062 C 247.617188 97.324219 247.371094 97.15625 247.089844 97.042969 C 246.808594 96.925781 246.515625 96.867188 246.214844 96.867188 Z M 246.214844 96.867188 " fill-opacity="1" fill-rule="nonzero"/><g clip-path="url(#d60d064639)"><path fill="#ffffff" d="M 303.503906 300.820312 L 303.503906 244.511719 C 303.503906 244.210938 303.445312 243.917969 303.328125 243.636719 C 303.214844 243.355469 303.046875 243.109375 302.832031 242.894531 C 302.617188 242.679688 302.371094 242.511719 302.089844 242.394531 C 301.808594 242.28125 301.515625 242.222656 301.210938 242.222656 C 300.910156 242.222656 300.617188 242.28125 300.335938 242.394531 C 300.054688 242.511719 299.808594 242.679688 299.59375 242.894531 C 299.378906 243.109375 299.210938 243.355469 299.09375 243.636719 C 298.980469 243.917969 298.921875 244.210938 298.921875 244.511719 L 298.921875 300.820312 C 298.921875 301.125 298.980469 301.417969 299.09375 301.699219 C 299.210938 301.980469 299.378906 302.226562 299.59375 302.441406 C 299.808594 302.65625 300.054688 302.824219 300.335938 302.9375 C 300.617188 303.054688 300.910156 303.113281 301.210938 303.113281 C 301.515625 303.113281 301.808594 303.054688 302.089844 302.9375 C 302.371094 302.824219 302.617188 302.65625 302.832031 302.441406 C 303.046875 302.226562 303.214844 301.980469 303.328125 301.699219 C 303.445312 301.417969 303.503906 301.125 303.503906 300.820312 Z M 303.503906 300.820312 " fill-opacity="1" fill-rule="nonzero"/></g><g clip-path="url(#5643bed04a)"><path fill="#ffffff" d="M 266.839844 300.820312 L 266.839844 244.511719 C 266.839844 244.210938 266.78125 243.917969 266.664062 243.636719 C 266.546875 243.355469 266.382812 243.109375 266.167969 242.894531 C 265.953125 242.679688 265.703125 242.511719 265.421875 242.394531 C 265.140625 242.28125 264.851562 242.222656 264.546875 242.222656 C 264.242188 242.222656 263.949219 242.28125 263.667969 242.394531 C 263.386719 242.511719 263.140625 242.679688 262.925781 242.894531 C 262.710938 243.109375 262.546875 243.355469 262.429688 243.636719 C 262.3125 243.917969 262.253906 244.210938 262.253906 244.511719 L 262.253906 300.820312 C 262.253906 301.125 262.3125 301.417969 262.429688 301.699219 C 262.546875 301.980469 262.710938 302.226562 262.925781 302.441406 C 263.140625 302.65625 263.386719 302.824219 263.667969 302.9375 C 263.949219 303.054688 264.242188 303.113281 264.546875 303.113281 C 264.851562 303.113281 265.140625 303.054688 265.421875 302.9375 C 265.703125 302.824219 265.953125 302.65625 266.167969 302.441406 C 266.382812 302.226562 266.546875 301.980469 266.664062 301.699219 C 266.78125 301.417969 266.839844 301.125 266.839844 300.820312 Z M 266.839844 300.820312 " fill-opacity="1" fill-rule="nonzero"/></g><path fill="#ffffff" d="M 281.308594 218.257812 C 290.867188 223.324219 299.40625 232.9375 298.332031 244.449219 L 300.621094 242.15625 L 264.546875 242.15625 C 264.242188 242.15625 263.949219 242.214844 263.667969 242.332031 C 263.386719 242.445312 263.140625 242.613281 262.925781 242.828125 C 262.710938 243.042969 262.546875 243.289062 262.429688 243.570312 C 262.3125 243.851562 262.253906 244.144531 262.253906 244.449219 C 262.253906 244.75 262.3125 245.042969 262.429688 245.324219 C 262.546875 245.605469 262.710938 245.851562 262.925781 246.066406 C 263.140625 246.28125 263.386719 246.449219 263.667969 246.566406 C 263.949219 246.679688 264.242188 246.738281 264.546875 246.738281 L 300.675781 246.738281 C 300.976562 246.734375 301.265625 246.671875 301.542969 246.550781 C 301.820312 246.433594 302.066406 246.265625 302.28125 246.054688 C 302.496094 245.839844 302.660156 245.59375 302.777344 245.316406 C 302.898438 245.039062 302.960938 244.75 302.96875 244.449219 C 304.121094 231.351562 294.496094 220 283.625 214.238281 C 281.007812 212.863281 278.703125 216.855469 281.308594 218.167969 Z M 281.308594 218.257812 " fill-opacity="1" fill-rule="nonzero"/><path fill="#ffffff" d="M 281.347656 214.304688 C 270.476562 220.066406 260.855469 231.40625 262.007812 244.511719 C 262.011719 244.816406 262.074219 245.105469 262.195312 245.382812 C 262.3125 245.660156 262.476562 245.90625 262.691406 246.117188 C 262.90625 246.332031 263.152344 246.5 263.429688 246.617188 C 263.707031 246.734375 263.996094 246.796875 264.296875 246.804688 L 301.210938 246.804688 C 301.515625 246.804688 301.808594 246.746094 302.089844 246.628906 C 302.371094 246.515625 302.617188 246.347656 302.832031 246.132812 C 303.046875 245.917969 303.214844 245.671875 303.328125 245.390625 C 303.445312 245.109375 303.503906 244.816406 303.503906 244.511719 C 303.503906 244.210938 303.445312 243.917969 303.328125 243.636719 C 303.214844 243.355469 303.046875 243.109375 302.832031 242.894531 C 302.617188 242.679688 302.371094 242.511719 302.089844 242.394531 C 301.808594 242.28125 301.515625 242.222656 301.210938 242.222656 L 264.296875 242.222656 L 266.589844 244.511719 C 265.566406 232.9375 274.105469 223.339844 283.613281 218.324219 C 286.230469 216.933594 283.902344 212.980469 281.292969 214.394531 Z M 281.347656 214.304688 " fill-opacity="1" fill-rule="nonzero"/><g clip-path="url(#409c5eec78)"><path fill="#ffffff" d="M 294.335938 300.820312 L 294.335938 270.9375 C 294.335938 262.0625 293.027344 255.027344 283.546875 251.296875 C 280.808594 250.210938 279.617188 254.636719 282.328125 255.710938 C 291.96875 259.519531 289.753906 268.242188 289.753906 276.738281 L 289.753906 300.847656 C 289.753906 301.152344 289.8125 301.445312 289.929688 301.726562 C 290.042969 302.003906 290.210938 302.253906 290.425781 302.46875 C 290.640625 302.683594 290.886719 302.847656 291.167969 302.964844 C 291.449219 303.082031 291.742188 303.140625 292.046875 303.140625 C 292.351562 303.140625 292.640625 303.082031 292.921875 302.964844 C 293.203125 302.847656 293.453125 302.683594 293.667969 302.46875 C 293.882812 302.253906 294.046875 302.003906 294.164062 301.726562 C 294.277344 301.445312 294.335938 301.152344 294.335938 300.847656 Z M 294.335938 300.820312 " fill-opacity="1" fill-rule="nonzero"/></g><g clip-path="url(#ed166d961f)"><path fill="#ffffff" d="M 274.695312 300.820312 L 274.695312 276.714844 C 274.695312 268.242188 272.457031 259.507812 282.121094 255.683594 C 284.832031 254.609375 283.652344 250.171875 280.902344 251.269531 C 271.394531 255.027344 270.113281 262.0625 270.113281 270.914062 L 270.113281 300.796875 C 270.113281 301.097656 270.167969 301.390625 270.285156 301.671875 C 270.402344 301.953125 270.566406 302.199219 270.78125 302.417969 C 270.996094 302.632812 271.246094 302.796875 271.527344 302.914062 C 271.808594 303.027344 272.097656 303.085938 272.402344 303.085938 C 272.707031 303.085938 273 303.027344 273.28125 302.914062 C 273.5625 302.796875 273.808594 302.632812 274.023438 302.417969 C 274.238281 302.199219 274.402344 301.953125 274.519531 301.671875 C 274.636719 301.390625 274.695312 301.097656 274.695312 300.796875 Z M 274.695312 300.820312 " fill-opacity="1" fill-rule="nonzero"/></g><path fill="#ffffff" d="M 231.808594 109.960938 L 187.285156 109.960938 C 186.980469 109.960938 186.691406 110.019531 186.410156 110.136719 C 186.128906 110.253906 185.878906 110.417969 185.664062 110.632812 C 185.449219 110.847656 185.285156 111.097656 185.167969 111.375 C 185.050781 111.65625 184.996094 111.949219 184.996094 112.253906 C 184.996094 112.558594 185.050781 112.851562 185.167969 113.128906 C 185.285156 113.410156 185.449219 113.660156 185.664062 113.875 C 185.878906 114.089844 186.128906 114.253906 186.410156 114.371094 C 186.691406 114.488281 186.980469 114.546875 187.285156 114.546875 L 231.808594 114.546875 C 232.113281 114.546875 232.40625 114.488281 232.6875 114.371094 C 232.964844 114.253906 233.214844 114.089844 233.429688 113.875 C 233.644531 113.660156 233.808594 113.410156 233.925781 113.128906 C 234.042969 112.851562 234.101562 112.558594 234.101562 112.253906 C 234.101562 111.949219 234.042969 111.65625 233.925781 111.375 C 233.808594 111.097656 233.644531 110.847656 233.429688 110.632812 C 233.214844 110.417969 232.964844 110.253906 232.6875 110.136719 C 232.40625 110.019531 232.113281 109.960938 231.808594 109.960938 Z M 231.808594 109.960938 " fill-opacity="1" fill-rule="nonzero"/><path fill="#ffffff" d="M 229.191406 180.675781 L 187.285156 180.675781 C 186.980469 180.675781 186.691406 180.734375 186.410156 180.851562 C 186.128906 180.964844 185.878906 181.132812 185.664062 181.347656 C 185.449219 181.5625 185.285156 181.808594 185.167969 182.089844 C 185.050781 182.371094 184.996094 182.664062 184.996094 182.96875 C 184.996094 183.269531 185.050781 183.5625 185.167969 183.84375 C 185.285156 184.125 185.449219 184.371094 185.664062 184.585938 C 185.878906 184.800781 186.128906 184.96875 186.410156 185.085938 C 186.691406 185.199219 186.980469 185.257812 187.285156 185.257812 L 229.191406 185.257812 C 229.492188 185.257812 229.785156 185.199219 230.066406 185.085938 C 230.347656 184.96875 230.59375 184.800781 230.808594 184.585938 C 231.023438 184.371094 231.191406 184.125 231.308594 183.84375 C 231.421875 183.5625 231.480469 183.269531 231.480469 182.96875 C 231.480469 182.664062 231.421875 182.371094 231.308594 182.089844 C 231.191406 181.808594 231.023438 181.5625 230.808594 181.347656 C 230.59375 181.132812 230.347656 180.964844 230.066406 180.851562 C 229.785156 180.734375 229.492188 180.675781 229.191406 180.675781 Z M 229.191406 180.675781 " fill-opacity="1" fill-rule="nonzero"/><path fill="#ffffff" d="M 211.183594 160.707031 L 211.183594 182.96875 C 211.183594 183.269531 211.242188 183.5625 211.359375 183.84375 C 211.476562 184.125 211.640625 184.371094 211.855469 184.585938 C 212.070312 184.800781 212.316406 184.96875 212.597656 185.085938 C 212.878906 185.199219 213.171875 185.257812 213.476562 185.257812 C 213.78125 185.257812 214.070312 185.199219 214.351562 185.085938 C 214.632812 184.96875 214.882812 184.800781 215.097656 184.585938 C 215.3125 184.371094 215.476562 184.125 215.59375 183.84375 C 215.710938 183.5625 215.765625 183.269531 215.765625 182.96875 L 215.765625 160.707031 C 215.765625 160.402344 215.710938 160.109375 215.59375 159.828125 C 215.476562 159.546875 215.3125 159.300781 215.097656 159.085938 C 214.882812 158.871094 214.632812 158.703125 214.351562 158.589844 C 214.070312 158.472656 213.78125 158.414062 213.476562 158.414062 C 213.171875 158.414062 212.878906 158.472656 212.597656 158.589844 C 212.316406 158.703125 212.070312 158.871094 211.855469 159.085938 C 211.640625 159.300781 211.476562 159.546875 211.359375 159.828125 C 211.242188 160.109375 211.183594 160.402344 211.183594 160.707031 Z M 211.183594 160.707031 " fill-opacity="1" fill-rule="nonzero"/><path fill="#ffffff" d="M 198.089844 160.707031 L 198.089844 181.65625 C 198.089844 181.960938 198.148438 182.253906 198.261719 182.535156 C 198.378906 182.816406 198.546875 183.0625 198.761719 183.277344 C 198.976562 183.492188 199.222656 183.65625 199.503906 183.773438 C 199.785156 183.890625 200.078125 183.949219 200.378906 183.949219 C 200.683594 183.949219 200.976562 183.890625 201.257812 183.773438 C 201.539062 183.65625 201.785156 183.492188 202 183.277344 C 202.214844 183.0625 202.382812 182.816406 202.496094 182.535156 C 202.613281 182.253906 202.671875 181.960938 202.671875 181.65625 L 202.671875 160.707031 C 202.671875 160.402344 202.613281 160.109375 202.496094 159.828125 C 202.382812 159.546875 202.214844 159.300781 202 159.085938 C 201.785156 158.871094 201.539062 158.703125 201.257812 158.589844 C 200.976562 158.472656 200.683594 158.414062 200.378906 158.414062 C 200.078125 158.414062 199.785156 158.472656 199.503906 158.589844 C 199.222656 158.703125 198.976562 158.871094 198.761719 159.085938 C 198.546875 159.300781 198.378906 159.546875 198.261719 159.828125 C 198.148438 160.109375 198.089844 160.402344 198.089844 160.707031 Z M 198.089844 160.707031 " fill-opacity="1" fill-rule="nonzero"/><path fill="#ffffff" d="M 184.996094 162.015625 L 184.996094 179.039062 C 184.996094 179.34375 185.050781 179.632812 185.167969 179.914062 C 185.285156 180.195312 185.449219 180.445312 185.664062 180.660156 C 185.878906 180.875 186.128906 181.039062 186.410156 181.15625 C 186.691406 181.273438 186.980469 181.328125 187.285156 181.328125 C 187.589844 181.328125 187.882812 181.273438 188.164062 181.15625 C 188.445312 181.039062 188.691406 180.875 188.90625 180.660156 C 189.121094 180.445312 189.285156 180.195312 189.402344 179.914062 C 189.519531 179.632812 189.578125 179.34375 189.578125 179.039062 L 189.578125 162.015625 C 189.578125 161.710938 189.519531 161.417969 189.402344 161.136719 C 189.285156 160.855469 189.121094 160.609375 188.90625 160.394531 C 188.691406 160.179688 188.445312 160.015625 188.164062 159.898438 C 187.882812 159.78125 187.589844 159.722656 187.285156 159.722656 C 186.980469 159.722656 186.691406 159.78125 186.410156 159.898438 C 186.128906 160.015625 185.878906 160.179688 185.664062 160.394531 C 185.449219 160.609375 185.285156 160.855469 185.167969 161.136719 C 185.050781 161.417969 184.996094 161.710938 184.996094 162.015625 Z M 184.996094 162.015625 " fill-opacity="1" fill-rule="nonzero"/><g clip-path="url(#a0ece774fa)"><path fill="#ffffff" d="M 221.003906 300.820312 C 221.003906 282.382812 221.003906 263.945312 221.003906 245.507812 C 221.003906 224.554688 205.578125 209.3125 187.992188 200.042969 C 185.375 198.734375 183.070312 202.660156 185.675781 203.972656 C 203.523438 213.375 216.410156 227.425781 216.410156 247.917969 L 216.410156 300.796875 C 216.410156 301.097656 216.46875 301.390625 216.582031 301.671875 C 216.699219 301.953125 216.867188 302.199219 217.082031 302.417969 C 217.296875 302.632812 217.542969 302.796875 217.824219 302.914062 C 218.105469 303.027344 218.398438 303.085938 218.699219 303.085938 C 219.003906 303.085938 219.296875 303.027344 219.578125 302.914062 C 219.859375 302.796875 220.105469 302.632812 220.320312 302.417969 C 220.535156 302.199219 220.703125 301.953125 220.816406 301.671875 C 220.933594 301.390625 220.992188 301.097656 220.992188 300.796875 Z M 221.003906 300.820312 " fill-opacity="1" fill-rule="nonzero"/></g></svg>