<svg xmlns="http://www.w3.org/2000/svg" xmlns:xlink="http://www.w3.org/1999/xlink" width="500" zoomAndPan="magnify" viewBox="0 0 375 374.999991" height="500" preserveAspectRatio="xMidYMid meet" version="1.0"><defs><linearGradient x1="0.984286" gradientTransform="matrix(-3.704347, 0, 0, -3.704347, 378.646115, 378.646111)" y1="56.618" x2="102.216707" gradientUnits="userSpaceOnUse" y2="56.618" id="f1d999d24e"><stop stop-opacity="1" stop-color="rgb(22.134399%, 71.038818%, 100%)" offset="0"/><stop stop-opacity="1" stop-color="rgb(22.189331%, 70.89386%, 100%)" offset="0.0078125"/><stop stop-opacity="1" stop-color="rgb(22.297668%, 70.603943%, 100%)" offset="0.015625"/><stop stop-opacity="1" stop-color="rgb(22.407532%, 70.314026%, 100%)" offset="0.0234375"/><stop stop-opacity="1" stop-color="rgb(22.515869%, 70.024109%, 100%)" offset="0.03125"/><stop stop-opacity="1" stop-color="rgb(22.625732%, 69.734192%, 100%)" offset="0.0390625"/><stop stop-opacity="1" stop-color="rgb(22.73407%, 69.444275%, 100%)" offset="0.046875"/><stop stop-opacity="1" stop-color="rgb(22.843933%, 69.154358%, 100%)" offset="0.0546875"/><stop stop-opacity="1" stop-color="rgb(22.952271%, 68.864441%, 100%)" offset="0.0625"/><stop stop-opacity="1" stop-color="rgb(23.062134%, 68.574524%, 100%)" offset="0.0703125"/><stop stop-opacity="1" stop-color="rgb(23.170471%, 68.284607%, 100%)" offset="0.078125"/><stop stop-opacity="1" stop-color="rgb(23.280334%, 67.99469%, 100%)" offset="0.0859375"/><stop stop-opacity="1" stop-color="rgb(23.388672%, 67.704773%, 100%)" offset="0.09375"/><stop stop-opacity="1" stop-color="rgb(23.498535%, 67.414856%, 100%)" offset="0.101562"/><stop stop-opacity="1" stop-color="rgb(23.606873%, 67.124939%, 100%)" offset="0.109375"/><stop stop-opacity="1" stop-color="rgb(23.716736%, 66.835022%, 100%)" offset="0.117188"/><stop stop-opacity="1" stop-color="rgb(23.825073%, 66.545105%, 100%)" offset="0.125"/><stop stop-opacity="1" stop-color="rgb(23.934937%, 66.255188%, 100%)" offset="0.132812"/><stop stop-opacity="1" stop-color="rgb(24.043274%, 65.965271%, 100%)" offset="0.140625"/><stop stop-opacity="1" stop-color="rgb(24.153137%, 65.67688%, 100%)" offset="0.148437"/><stop stop-opacity="1" stop-color="rgb(24.261475%, 65.386963%, 100%)" offset="0.15625"/><stop stop-opacity="1" stop-color="rgb(24.371338%, 65.097046%, 100%)" offset="0.164062"/><stop stop-opacity="1" stop-color="rgb(24.479675%, 64.807129%, 100%)" offset="0.171875"/><stop stop-opacity="1" stop-color="rgb(24.589539%, 64.517212%, 100%)" offset="0.179688"/><stop stop-opacity="1" stop-color="rgb(24.697876%, 64.227295%, 100%)" offset="0.1875"/><stop stop-opacity="1" stop-color="rgb(24.807739%, 63.937378%, 100%)" offset="0.195312"/><stop stop-opacity="1" stop-color="rgb(24.916077%, 63.647461%, 100%)" offset="0.203125"/><stop stop-opacity="1" stop-color="rgb(25.02594%, 63.357544%, 100%)" offset="0.210938"/><stop stop-opacity="1" stop-color="rgb(25.134277%, 63.067627%, 100%)" offset="0.21875"/><stop stop-opacity="1" stop-color="rgb(25.244141%, 62.77771%, 100%)" offset="0.226563"/><stop stop-opacity="1" stop-color="rgb(25.352478%, 62.487793%, 100%)" offset="0.234375"/><stop stop-opacity="1" stop-color="rgb(25.462341%, 62.197876%, 100%)" offset="0.242188"/><stop stop-opacity="1" stop-color="rgb(25.570679%, 61.907959%, 100%)" offset="0.25"/><stop stop-opacity="1" stop-color="rgb(25.680542%, 61.618042%, 100%)" offset="0.257812"/><stop stop-opacity="1" stop-color="rgb(25.788879%, 61.328125%, 100%)" offset="0.265625"/><stop stop-opacity="1" stop-color="rgb(25.898743%, 61.038208%, 100%)" offset="0.273438"/><stop stop-opacity="1" stop-color="rgb(26.00708%, 60.748291%, 100%)" offset="0.28125"/><stop stop-opacity="1" stop-color="rgb(26.116943%, 60.458374%, 100%)" offset="0.289062"/><stop stop-opacity="1" stop-color="rgb(26.225281%, 60.168457%, 100%)" offset="0.296875"/><stop stop-opacity="1" stop-color="rgb(26.335144%, 59.87854%, 100%)" offset="0.304687"/><stop stop-opacity="1" stop-color="rgb(26.443481%, 59.588623%, 100%)" offset="0.3125"/><stop stop-opacity="1" stop-color="rgb(26.553345%, 59.298706%, 100%)" offset="0.320312"/><stop stop-opacity="1" stop-color="rgb(26.661682%, 59.008789%, 100%)" offset="0.328125"/><stop stop-opacity="1" stop-color="rgb(26.771545%, 58.718872%, 100%)" offset="0.335938"/><stop stop-opacity="1" stop-color="rgb(26.879883%, 58.430481%, 100%)" offset="0.34375"/><stop stop-opacity="1" stop-color="rgb(26.989746%, 58.140564%, 100%)" offset="0.351562"/><stop stop-opacity="1" stop-color="rgb(27.098083%, 57.850647%, 100%)" offset="0.359375"/><stop stop-opacity="1" stop-color="rgb(27.207947%, 57.56073%, 100%)" offset="0.367187"/><stop stop-opacity="1" stop-color="rgb(27.316284%, 57.270813%, 100%)" offset="0.375"/><stop stop-opacity="1" stop-color="rgb(27.426147%, 56.980896%, 100%)" offset="0.382812"/><stop stop-opacity="1" stop-color="rgb(27.534485%, 56.690979%, 100%)" offset="0.390625"/><stop stop-opacity="1" stop-color="rgb(27.644348%, 56.401062%, 100%)" offset="0.398437"/><stop stop-opacity="1" stop-color="rgb(27.752686%, 56.111145%, 100%)" offset="0.40625"/><stop stop-opacity="1" stop-color="rgb(27.862549%, 55.821228%, 100%)" offset="0.414062"/><stop stop-opacity="1" stop-color="rgb(27.970886%, 55.531311%, 100%)" offset="0.421875"/><stop stop-opacity="1" stop-color="rgb(28.08075%, 55.241394%, 100%)" offset="0.429687"/><stop stop-opacity="1" stop-color="rgb(28.189087%, 54.951477%, 100%)" offset="0.4375"/><stop stop-opacity="1" stop-color="rgb(28.29895%, 54.66156%, 100%)" offset="0.445312"/><stop stop-opacity="1" stop-color="rgb(28.407288%, 54.371643%, 100%)" offset="0.453125"/><stop stop-opacity="1" stop-color="rgb(28.517151%, 54.081726%, 100%)" offset="0.460937"/><stop stop-opacity="1" stop-color="rgb(28.625488%, 53.791809%, 100%)" offset="0.46875"/><stop stop-opacity="1" stop-color="rgb(28.735352%, 53.501892%, 100%)" offset="0.476562"/><stop stop-opacity="1" stop-color="rgb(28.843689%, 53.211975%, 100%)" offset="0.484375"/><stop stop-opacity="1" stop-color="rgb(28.953552%, 52.922058%, 100%)" offset="0.492187"/><stop stop-opacity="1" stop-color="rgb(29.06189%, 52.632141%, 100%)" offset="0.5"/><stop stop-opacity="1" stop-color="rgb(29.171753%, 52.342224%, 100%)" offset="0.507812"/><stop stop-opacity="1" stop-color="rgb(29.28009%, 52.052307%, 100%)" offset="0.515625"/><stop stop-opacity="1" stop-color="rgb(29.389954%, 51.76239%, 100%)" offset="0.523437"/><stop stop-opacity="1" stop-color="rgb(29.498291%, 51.473999%, 100%)" offset="0.53125"/><stop stop-opacity="1" stop-color="rgb(29.608154%, 51.184082%, 100%)" offset="0.539062"/><stop stop-opacity="1" stop-color="rgb(29.716492%, 50.894165%, 100%)" offset="0.546875"/><stop stop-opacity="1" stop-color="rgb(29.826355%, 50.604248%, 100%)" offset="0.554687"/><stop stop-opacity="1" stop-color="rgb(29.934692%, 50.314331%, 100%)" offset="0.5625"/><stop stop-opacity="1" stop-color="rgb(30.044556%, 50.024414%, 100%)" offset="0.570312"/><stop stop-opacity="1" stop-color="rgb(30.152893%, 49.734497%, 100%)" offset="0.578125"/><stop stop-opacity="1" stop-color="rgb(30.262756%, 49.44458%, 100%)" offset="0.585937"/><stop stop-opacity="1" stop-color="rgb(30.371094%, 49.154663%, 100%)" offset="0.59375"/><stop stop-opacity="1" stop-color="rgb(30.480957%, 48.864746%, 100%)" offset="0.601562"/><stop stop-opacity="1" stop-color="rgb(30.589294%, 48.574829%, 100%)" offset="0.609375"/><stop stop-opacity="1" stop-color="rgb(30.699158%, 48.284912%, 100%)" offset="0.617187"/><stop stop-opacity="1" stop-color="rgb(30.807495%, 47.994995%, 100%)" offset="0.625"/><stop stop-opacity="1" stop-color="rgb(30.917358%, 47.705078%, 100%)" offset="0.632812"/><stop stop-opacity="1" stop-color="rgb(31.025696%, 47.415161%, 100%)" offset="0.640625"/><stop stop-opacity="1" stop-color="rgb(31.135559%, 47.125244%, 100%)" offset="0.648437"/><stop stop-opacity="1" stop-color="rgb(31.243896%, 46.835327%, 100%)" offset="0.65625"/><stop stop-opacity="1" stop-color="rgb(31.35376%, 46.54541%, 100%)" offset="0.664062"/><stop stop-opacity="1" stop-color="rgb(31.462097%, 46.255493%, 100%)" offset="0.671875"/><stop stop-opacity="1" stop-color="rgb(31.57196%, 45.965576%, 100%)" offset="0.679687"/><stop stop-opacity="1" stop-color="rgb(31.680298%, 45.675659%, 100%)" offset="0.6875"/><stop stop-opacity="1" stop-color="rgb(31.790161%, 45.385742%, 100%)" offset="0.695312"/><stop stop-opacity="1" stop-color="rgb(31.898499%, 45.095825%, 100%)" offset="0.703125"/><stop stop-opacity="1" stop-color="rgb(32.008362%, 44.805908%, 100%)" offset="0.710937"/><stop stop-opacity="1" stop-color="rgb(32.116699%, 44.515991%, 100%)" offset="0.71875"/><stop stop-opacity="1" stop-color="rgb(32.185364%, 44.335938%, 100%)" offset="0.75"/><stop stop-opacity="1" stop-color="rgb(32.199097%, 44.299316%, 100%)" offset="1"/></linearGradient><clipPath id="aaedb0c7d8"><path d="M 52.070312 274 L 191 274 L 191 278.855469 L 52.070312 278.855469 Z M 52.070312 274 " clip-rule="nonzero"/></clipPath><clipPath id="b75aba2e74"><path d="M 67 181 L 72 181 L 72 278.855469 L 67 278.855469 Z M 67 181 " clip-rule="nonzero"/></clipPath><clipPath id="5b57446186"><path d="M 126 118 L 131 118 L 131 278.855469 L 126 278.855469 Z M 126 118 " clip-rule="nonzero"/></clipPath><clipPath id="66c52d4415"><path d="M 147 118 L 152 118 L 152 278.855469 L 147 278.855469 Z M 147 118 " clip-rule="nonzero"/></clipPath><clipPath id="d3b85e14b3"><path d="M 137 71.105469 L 143 71.105469 L 143 85 L 137 85 Z M 137 71.105469 " clip-rule="nonzero"/></clipPath><clipPath id="039d1317bc"><path d="M 82 223 L 87 223 L 87 278.855469 L 82 278.855469 Z M 82 223 " clip-rule="nonzero"/></clipPath><clipPath id="bc9b470769"><path d="M 115 223 L 120 223 L 120 278.855469 L 115 278.855469 Z M 115 223 " clip-rule="nonzero"/></clipPath><clipPath id="27ccedd9e2"><path d="M 90 231 L 104 231 L 104 278.855469 L 90 278.855469 Z M 90 231 " clip-rule="nonzero"/></clipPath><clipPath id="b51c4eb6a7"><path d="M 100 231 L 113 231 L 113 278.855469 L 100 278.855469 Z M 100 231 " clip-rule="nonzero"/></clipPath><clipPath id="2c86c427c8"><path d="M 156 185 L 190 185 L 190 278.855469 L 156 278.855469 Z M 156 185 " clip-rule="nonzero"/></clipPath><clipPath id="292e7c4041"><path d="M 186 274 L 322.820312 274 L 322.820312 278.855469 L 186 278.855469 Z M 186 274 " clip-rule="nonzero"/></clipPath><clipPath id="eab40efa96"><path d="M 303 181 L 308 181 L 308 278.855469 L 303 278.855469 Z M 303 181 " clip-rule="nonzero"/></clipPath><clipPath id="4ba9f5d629"><path d="M 244 118 L 249 118 L 249 278.855469 L 244 278.855469 Z M 244 118 " clip-rule="nonzero"/></clipPath><clipPath id="de83abc7c8"><path d="M 223 118 L 228 118 L 228 278.855469 L 223 278.855469 Z M 223 118 " clip-rule="nonzero"/></clipPath><clipPath id="2963edc89c"><path d="M 233 71.105469 L 238 71.105469 L 238 85 L 233 85 Z M 233 71.105469 " clip-rule="nonzero"/></clipPath><clipPath id="496afaa738"><path d="M 288 223 L 293 223 L 293 278.855469 L 288 278.855469 Z M 288 223 " clip-rule="nonzero"/></clipPath><clipPath id="fd875b61ee"><path d="M 255 223 L 260 223 L 260 278.855469 L 255 278.855469 Z M 255 223 " clip-rule="nonzero"/></clipPath><clipPath id="1fd69e9b81"><path d="M 272 231 L 285 231 L 285 278.855469 L 272 278.855469 Z M 272 231 " clip-rule="nonzero"/></clipPath><clipPath id="e05fa6983e"><path d="M 262 231 L 275 231 L 275 278.855469 L 262 278.855469 Z M 262 231 " clip-rule="nonzero"/></clipPath><clipPath id="6cffcf042a"><path d="M 185 185 L 219 185 L 219 278.855469 L 185 278.855469 Z M 185 185 " clip-rule="nonzero"/></clipPath></defs><rect x="-37.5" width="450" fill="#ffffff" y="-37.499999" height="449.999989" fill-opacity="1"/><rect x="-37.5" width="450" fill="#ffffff" y="-37.499999" height="449.999989" fill-opacity="1"/><rect x="-37.5" fill="url(#f1d999d24e)" width="450" y="-37.499999" height="449.999989"/><g clip-path="url(#aaedb0c7d8)"><path fill="#ffffff" d="M 54.175781 278.621094 L 188.132812 278.621094 C 188.40625 278.621094 188.667969 278.570312 188.921875 278.464844 C 189.171875 278.359375 189.394531 278.210938 189.585938 278.019531 C 189.78125 277.824219 189.929688 277.601562 190.03125 277.351562 C 190.136719 277.097656 190.191406 276.835938 190.191406 276.5625 C 190.191406 276.292969 190.136719 276.03125 190.03125 275.777344 C 189.929688 275.527344 189.78125 275.304688 189.585938 275.109375 C 189.394531 274.917969 189.171875 274.769531 188.921875 274.664062 C 188.667969 274.558594 188.40625 274.507812 188.132812 274.507812 L 54.175781 274.507812 C 53.902344 274.507812 53.640625 274.558594 53.386719 274.664062 C 53.136719 274.769531 52.914062 274.917969 52.71875 275.109375 C 52.527344 275.304688 52.378906 275.527344 52.273438 275.777344 C 52.171875 276.03125 52.117188 276.292969 52.117188 276.5625 C 52.117188 276.835938 52.171875 277.097656 52.273438 277.351562 C 52.378906 277.601562 52.527344 277.824219 52.71875 278.019531 C 52.914062 278.210938 53.136719 278.359375 53.386719 278.464844 C 53.640625 278.570312 53.902344 278.621094 54.175781 278.621094 Z M 54.175781 278.621094 " fill-opacity="1" fill-rule="nonzero"/></g><g clip-path="url(#b75aba2e74)"><path fill="#ffffff" d="M 71.507812 276.5625 L 71.507812 183.734375 C 71.507812 183.460938 71.453125 183.199219 71.351562 182.945312 C 71.246094 182.695312 71.097656 182.472656 70.90625 182.277344 C 70.710938 182.085938 70.488281 181.9375 70.238281 181.832031 C 69.984375 181.730469 69.722656 181.675781 69.449219 181.675781 C 69.175781 181.675781 68.914062 181.730469 68.664062 181.832031 C 68.410156 181.9375 68.1875 182.085938 67.996094 182.277344 C 67.804688 182.472656 67.65625 182.695312 67.550781 182.945312 C 67.445312 183.199219 67.394531 183.460938 67.394531 183.734375 L 67.394531 276.5625 C 67.394531 276.835938 67.445312 277.097656 67.550781 277.351562 C 67.65625 277.601562 67.804688 277.824219 67.996094 278.019531 C 68.1875 278.210938 68.410156 278.359375 68.664062 278.464844 C 68.914062 278.570312 69.175781 278.621094 69.449219 278.621094 C 69.722656 278.621094 69.984375 278.570312 70.238281 278.464844 C 70.488281 278.359375 70.710938 278.210938 70.90625 278.019531 C 71.097656 277.824219 71.246094 277.601562 71.351562 277.351562 C 71.453125 277.097656 71.507812 276.835938 71.507812 276.5625 Z M 71.507812 276.5625 " fill-opacity="1" fill-rule="nonzero"/></g><path fill="#ffffff" d="M 71.507812 170.808594 L 71.507812 150.832031 C 71.507812 150.558594 71.453125 150.296875 71.351562 150.042969 C 71.246094 149.792969 71.097656 149.570312 70.90625 149.378906 C 70.710938 149.183594 70.488281 149.035156 70.238281 148.929688 C 69.984375 148.828125 69.722656 148.773438 69.449219 148.773438 C 69.175781 148.773438 68.914062 148.828125 68.664062 148.929688 C 68.410156 149.035156 68.1875 149.183594 67.996094 149.378906 C 67.804688 149.570312 67.65625 149.792969 67.550781 150.042969 C 67.445312 150.296875 67.394531 150.558594 67.394531 150.832031 L 67.394531 170.808594 C 67.394531 171.082031 67.445312 171.34375 67.550781 171.59375 C 67.65625 171.847656 67.804688 172.070312 67.996094 172.261719 C 68.1875 172.453125 68.410156 172.601562 68.664062 172.707031 C 68.914062 172.8125 69.175781 172.863281 69.449219 172.863281 C 69.722656 172.863281 69.984375 172.8125 70.238281 172.707031 C 70.488281 172.601562 70.710938 172.453125 70.90625 172.261719 C 71.097656 172.070312 71.246094 171.847656 71.351562 171.59375 C 71.453125 171.34375 71.507812 171.082031 71.507812 170.808594 Z M 71.507812 170.808594 " fill-opacity="1" fill-rule="nonzero"/><g clip-path="url(#5b57446186)"><path fill="#ffffff" d="M 130.261719 276.5625 L 130.261719 120.277344 C 130.261719 120.007812 130.207031 119.742188 130.105469 119.492188 C 130 119.238281 129.851562 119.019531 129.660156 118.824219 C 129.464844 118.632812 129.242188 118.484375 128.992188 118.378906 C 128.738281 118.273438 128.476562 118.222656 128.203125 118.222656 C 127.929688 118.222656 127.667969 118.273438 127.417969 118.378906 C 127.164062 118.484375 126.941406 118.632812 126.75 118.824219 C 126.558594 119.019531 126.410156 119.238281 126.304688 119.492188 C 126.199219 119.742188 126.148438 120.007812 126.148438 120.277344 L 126.148438 276.5625 C 126.148438 276.835938 126.199219 277.097656 126.304688 277.351562 C 126.410156 277.601562 126.558594 277.824219 126.75 278.019531 C 126.941406 278.210938 127.164062 278.359375 127.417969 278.464844 C 127.667969 278.570312 127.929688 278.621094 128.203125 278.621094 C 128.476562 278.621094 128.738281 278.570312 128.992188 278.464844 C 129.242188 278.359375 129.464844 278.210938 129.660156 278.019531 C 129.851562 277.824219 130 277.601562 130.105469 277.351562 C 130.207031 277.097656 130.261719 276.835938 130.261719 276.5625 Z M 130.261719 276.5625 " fill-opacity="1" fill-rule="nonzero"/></g><g clip-path="url(#66c52d4415)"><path fill="#ffffff" d="M 151.410156 276.5625 L 151.410156 120.277344 C 151.410156 120.007812 151.359375 119.742188 151.253906 119.492188 C 151.152344 119.238281 151.003906 119.019531 150.808594 118.824219 C 150.617188 118.632812 150.394531 118.484375 150.140625 118.378906 C 149.890625 118.273438 149.628906 118.222656 149.355469 118.222656 C 149.082031 118.222656 148.820312 118.273438 148.570312 118.378906 C 148.316406 118.484375 148.09375 118.632812 147.902344 118.824219 C 147.707031 119.019531 147.558594 119.238281 147.457031 119.492188 C 147.351562 119.742188 147.300781 120.007812 147.300781 120.277344 L 147.300781 276.5625 C 147.300781 276.835938 147.351562 277.097656 147.457031 277.351562 C 147.558594 277.601562 147.707031 277.824219 147.902344 278.019531 C 148.09375 278.210938 148.316406 278.359375 148.570312 278.464844 C 148.820312 278.570312 149.082031 278.621094 149.355469 278.621094 C 149.628906 278.621094 149.890625 278.570312 150.140625 278.464844 C 150.394531 278.359375 150.617188 278.210938 150.808594 278.019531 C 151.003906 277.824219 151.152344 277.601562 151.253906 277.351562 C 151.359375 277.097656 151.410156 276.835938 151.410156 276.5625 Z M 151.410156 276.5625 " fill-opacity="1" fill-rule="nonzero"/></g><path fill="#ffffff" d="M 149.355469 181.675781 L 63.574219 181.675781 C 63.300781 181.675781 63.039062 181.730469 62.789062 181.832031 C 62.535156 181.9375 62.3125 182.085938 62.121094 182.277344 C 61.929688 182.472656 61.78125 182.695312 61.675781 182.945312 C 61.570312 183.199219 61.519531 183.460938 61.519531 183.734375 C 61.519531 184.007812 61.570312 184.269531 61.675781 184.519531 C 61.78125 184.773438 61.929688 184.996094 62.121094 185.1875 C 62.3125 185.378906 62.535156 185.527344 62.789062 185.632812 C 63.039062 185.738281 63.300781 185.789062 63.574219 185.789062 L 149.355469 185.789062 C 149.628906 185.789062 149.890625 185.738281 150.140625 185.632812 C 150.394531 185.527344 150.617188 185.378906 150.808594 185.1875 C 151.003906 184.996094 151.152344 184.773438 151.253906 184.519531 C 151.359375 184.269531 151.410156 184.007812 151.410156 183.734375 C 151.410156 183.460938 151.359375 183.199219 151.253906 182.945312 C 151.152344 182.695312 151.003906 182.472656 150.808594 182.277344 C 150.617188 182.085938 150.394531 181.9375 150.140625 181.832031 C 149.890625 181.730469 149.628906 181.675781 149.355469 181.675781 Z M 149.355469 181.675781 " fill-opacity="1" fill-rule="nonzero"/><path fill="#ffffff" d="M 148.179688 168.75 L 58.875 168.75 C 58.601562 168.75 58.339844 168.804688 58.085938 168.90625 C 57.835938 169.011719 57.613281 169.160156 57.421875 169.351562 C 57.226562 169.546875 57.078125 169.769531 56.976562 170.019531 C 56.871094 170.273438 56.816406 170.535156 56.816406 170.808594 C 56.816406 171.082031 56.871094 171.34375 56.976562 171.59375 C 57.078125 171.847656 57.226562 172.070312 57.421875 172.261719 C 57.613281 172.453125 57.835938 172.601562 58.085938 172.707031 C 58.339844 172.8125 58.601562 172.863281 58.875 172.863281 L 148.179688 172.863281 C 148.453125 172.863281 148.714844 172.8125 148.96875 172.707031 C 149.21875 172.601562 149.441406 172.453125 149.632812 172.261719 C 149.828125 172.070312 149.976562 171.847656 150.082031 171.59375 C 150.183594 171.34375 150.238281 171.082031 150.238281 170.808594 C 150.238281 170.535156 150.183594 170.273438 150.082031 170.019531 C 149.976562 169.769531 149.828125 169.546875 149.632812 169.351562 C 149.441406 169.160156 149.21875 169.011719 148.96875 168.90625 C 148.714844 168.804688 148.453125 168.75 148.179688 168.75 Z M 148.179688 168.75 " fill-opacity="1" fill-rule="nonzero"/><path fill="#ffffff" d="M 65.324219 183.273438 L 60.414062 170.195312 C 59.496094 167.742188 55.515625 168.808594 56.453125 171.289062 L 61.355469 184.367188 C 62.269531 186.824219 66.253906 185.753906 65.3125 183.273438 Z M 65.324219 183.273438 " fill-opacity="1" fill-rule="nonzero"/><path fill="#ffffff" d="M 186.957031 148.773438 L 64.75 148.773438 C 64.476562 148.773438 64.214844 148.828125 63.964844 148.929688 C 63.710938 149.035156 63.488281 149.183594 63.296875 149.378906 C 63.101562 149.570312 62.953125 149.792969 62.851562 150.042969 C 62.746094 150.296875 62.695312 150.558594 62.695312 150.832031 C 62.695312 151.105469 62.746094 151.367188 62.851562 151.617188 C 62.953125 151.871094 63.101562 152.09375 63.296875 152.285156 C 63.488281 152.476562 63.710938 152.625 63.964844 152.730469 C 64.214844 152.835938 64.476562 152.886719 64.75 152.886719 L 186.957031 152.886719 C 187.230469 152.886719 187.492188 152.835938 187.746094 152.730469 C 187.996094 152.625 188.21875 152.476562 188.410156 152.285156 C 188.605469 152.09375 188.753906 151.871094 188.859375 151.617188 C 188.960938 151.367188 189.015625 151.105469 189.015625 150.832031 C 189.015625 150.558594 188.960938 150.296875 188.859375 150.042969 C 188.753906 149.792969 188.605469 149.570312 188.410156 149.378906 C 188.21875 149.183594 187.996094 149.035156 187.746094 148.929688 C 187.492188 148.828125 187.230469 148.773438 186.957031 148.773438 Z M 186.957031 148.773438 " fill-opacity="1" fill-rule="nonzero"/><path fill="#ffffff" d="M 128.203125 134.671875 L 64.75 134.671875 C 64.476562 134.671875 64.214844 134.726562 63.964844 134.832031 C 63.710938 134.933594 63.488281 135.082031 63.296875 135.277344 C 63.101562 135.46875 62.953125 135.691406 62.851562 135.941406 C 62.746094 136.195312 62.695312 136.457031 62.695312 136.730469 C 62.695312 137.003906 62.746094 137.265625 62.851562 137.515625 C 62.953125 137.769531 63.101562 137.992188 63.296875 138.183594 C 63.488281 138.378906 63.710938 138.527344 63.964844 138.628906 C 64.214844 138.734375 64.476562 138.785156 64.75 138.785156 L 128.203125 138.785156 C 128.476562 138.785156 128.738281 138.734375 128.992188 138.628906 C 129.242188 138.527344 129.464844 138.378906 129.660156 138.183594 C 129.851562 137.992188 130 137.769531 130.105469 137.515625 C 130.207031 137.265625 130.261719 137.003906 130.261719 136.730469 C 130.261719 136.457031 130.207031 136.195312 130.105469 135.941406 C 130 135.691406 129.851562 135.46875 129.660156 135.277344 C 129.464844 135.082031 129.242188 134.933594 128.992188 134.832031 C 128.738281 134.726562 128.476562 134.671875 128.203125 134.671875 Z M 128.203125 134.671875 " fill-opacity="1" fill-rule="nonzero"/><path fill="#ffffff" d="M 66.804688 150.832031 L 66.804688 136.730469 C 66.804688 136.457031 66.753906 136.195312 66.648438 135.941406 C 66.546875 135.691406 66.398438 135.46875 66.203125 135.277344 C 66.011719 135.082031 65.789062 134.933594 65.535156 134.832031 C 65.285156 134.726562 65.023438 134.671875 64.75 134.671875 C 64.476562 134.671875 64.214844 134.726562 63.964844 134.832031 C 63.710938 134.933594 63.488281 135.082031 63.296875 135.277344 C 63.101562 135.46875 62.953125 135.691406 62.851562 135.941406 C 62.746094 136.195312 62.695312 136.457031 62.695312 136.730469 L 62.695312 150.832031 C 62.695312 151.105469 62.746094 151.367188 62.851562 151.617188 C 62.953125 151.871094 63.101562 152.09375 63.296875 152.285156 C 63.488281 152.476562 63.710938 152.625 63.964844 152.730469 C 64.214844 152.835938 64.476562 152.886719 64.75 152.886719 C 65.023438 152.886719 65.285156 152.835938 65.535156 152.730469 C 65.789062 152.625 66.011719 152.476562 66.203125 152.285156 C 66.398438 152.09375 66.546875 151.871094 66.648438 151.617188 C 66.753906 151.367188 66.804688 151.105469 66.804688 150.832031 Z M 66.804688 150.832031 " fill-opacity="1" fill-rule="nonzero"/><path fill="#ffffff" d="M 186.957031 118.222656 L 128.203125 118.222656 C 127.929688 118.222656 127.667969 118.273438 127.417969 118.378906 C 127.164062 118.484375 126.941406 118.632812 126.75 118.824219 C 126.558594 119.019531 126.410156 119.238281 126.304688 119.492188 C 126.199219 119.742188 126.148438 120.007812 126.148438 120.277344 C 126.148438 120.550781 126.199219 120.8125 126.304688 121.066406 C 126.410156 121.316406 126.558594 121.539062 126.75 121.734375 C 126.941406 121.925781 127.164062 122.074219 127.417969 122.179688 C 127.667969 122.285156 127.929688 122.335938 128.203125 122.335938 L 186.957031 122.335938 C 187.230469 122.335938 187.492188 122.285156 187.746094 122.179688 C 187.996094 122.074219 188.21875 121.925781 188.410156 121.734375 C 188.605469 121.539062 188.753906 121.316406 188.859375 121.066406 C 188.960938 120.8125 189.015625 120.550781 189.015625 120.277344 C 189.015625 120.007812 188.960938 119.742188 188.859375 119.492188 C 188.753906 119.238281 188.605469 119.019531 188.410156 118.824219 C 188.21875 118.632812 187.996094 118.484375 187.746094 118.378906 C 187.492188 118.273438 187.230469 118.222656 186.957031 118.222656 Z M 186.957031 118.222656 " fill-opacity="1" fill-rule="nonzero"/><path fill="#ffffff" d="M 136.136719 116.753906 L 136.136719 100.136719 C 136.136719 93.085938 134.632812 88.667969 141.660156 84.675781 C 144.007812 83.371094 141.894531 79.808594 139.578125 81.148438 C 132.773438 84.992188 132.023438 88.917969 132.023438 95.964844 L 132.023438 116.753906 C 132.023438 117.027344 132.074219 117.289062 132.179688 117.539062 C 132.285156 117.792969 132.433594 118.015625 132.625 118.207031 C 132.816406 118.402344 133.039062 118.550781 133.292969 118.652344 C 133.542969 118.757812 133.808594 118.808594 134.078125 118.808594 C 134.351562 118.808594 134.613281 118.757812 134.867188 118.652344 C 135.117188 118.550781 135.339844 118.402344 135.535156 118.207031 C 135.726562 118.015625 135.875 117.792969 135.980469 117.539062 C 136.082031 117.289062 136.136719 117.027344 136.136719 116.753906 Z M 136.136719 116.753906 " fill-opacity="1" fill-rule="nonzero"/><path fill="#ffffff" d="M 149.0625 116.753906 L 149.0625 95.964844 C 149.0625 88.988281 148.332031 85.050781 141.507812 81.183594 C 139.15625 79.878906 137.121094 83.429688 139.425781 84.710938 C 146.394531 88.667969 144.949219 93.183594 144.949219 100.171875 L 144.949219 116.753906 C 144.949219 117.027344 145 117.289062 145.105469 117.539062 C 145.210938 117.792969 145.359375 118.015625 145.550781 118.207031 C 145.742188 118.402344 145.964844 118.550781 146.21875 118.652344 C 146.46875 118.757812 146.734375 118.808594 147.003906 118.808594 C 147.277344 118.808594 147.539062 118.757812 147.792969 118.652344 C 148.042969 118.550781 148.265625 118.402344 148.460938 118.207031 C 148.652344 118.015625 148.800781 117.792969 148.90625 117.539062 C 149.007812 117.289062 149.0625 117.027344 149.0625 116.753906 Z M 149.0625 116.753906 " fill-opacity="1" fill-rule="nonzero"/><g clip-path="url(#d3b85e14b3)"><path fill="#ffffff" d="M 142.011719 82.675781 L 142.011719 73.277344 C 142.011719 73.003906 141.960938 72.742188 141.855469 72.488281 C 141.75 72.238281 141.601562 72.015625 141.410156 71.820312 C 141.214844 71.628906 140.992188 71.480469 140.742188 71.375 C 140.488281 71.273438 140.226562 71.21875 139.953125 71.21875 C 139.683594 71.21875 139.417969 71.273438 139.167969 71.375 C 138.917969 71.480469 138.695312 71.628906 138.5 71.820312 C 138.308594 72.015625 138.160156 72.238281 138.054688 72.488281 C 137.949219 72.742188 137.898438 73.003906 137.898438 73.277344 L 137.898438 82.675781 C 137.898438 82.949219 137.949219 83.210938 138.054688 83.464844 C 138.160156 83.714844 138.308594 83.9375 138.5 84.128906 C 138.695312 84.324219 138.917969 84.472656 139.167969 84.578125 C 139.417969 84.679688 139.683594 84.734375 139.953125 84.734375 C 140.226562 84.734375 140.488281 84.679688 140.742188 84.578125 C 140.992188 84.472656 141.214844 84.324219 141.410156 84.128906 C 141.601562 83.9375 141.75 83.714844 141.855469 83.464844 C 141.960938 83.210938 142.011719 82.949219 142.011719 82.675781 Z M 142.011719 82.675781 " fill-opacity="1" fill-rule="nonzero"/></g><path fill="#ffffff" d="M 134.078125 97.660156 L 147.003906 97.660156 C 147.277344 97.660156 147.539062 97.605469 147.792969 97.503906 C 148.042969 97.398438 148.265625 97.25 148.460938 97.054688 C 148.652344 96.863281 148.800781 96.640625 148.90625 96.390625 C 149.007812 96.136719 149.0625 95.875 149.0625 95.601562 C 149.0625 95.328125 149.007812 95.066406 148.90625 94.816406 C 148.800781 94.5625 148.652344 94.339844 148.460938 94.148438 C 148.265625 93.957031 148.042969 93.808594 147.792969 93.703125 C 147.539062 93.597656 147.277344 93.546875 147.003906 93.546875 L 134.078125 93.546875 C 133.808594 93.546875 133.542969 93.597656 133.292969 93.703125 C 133.039062 93.808594 132.816406 93.957031 132.625 94.148438 C 132.433594 94.339844 132.285156 94.5625 132.179688 94.816406 C 132.074219 95.066406 132.023438 95.328125 132.023438 95.601562 C 132.023438 95.875 132.074219 96.136719 132.179688 96.390625 C 132.285156 96.640625 132.433594 96.863281 132.625 97.054688 C 132.816406 97.25 133.039062 97.398438 133.292969 97.503906 C 133.542969 97.605469 133.808594 97.660156 134.078125 97.660156 Z M 134.078125 97.660156 " fill-opacity="1" fill-rule="nonzero"/><g clip-path="url(#039d1317bc)"><path fill="#ffffff" d="M 86.78125 276.5625 L 86.78125 226.035156 C 86.78125 225.761719 86.730469 225.5 86.625 225.25 C 86.523438 224.996094 86.375 224.773438 86.179688 224.582031 C 85.988281 224.390625 85.765625 224.242188 85.511719 224.136719 C 85.261719 224.03125 85 223.980469 84.726562 223.980469 C 84.453125 223.980469 84.191406 224.03125 83.9375 224.136719 C 83.6875 224.242188 83.464844 224.390625 83.273438 224.582031 C 83.078125 224.773438 82.929688 224.996094 82.828125 225.25 C 82.722656 225.5 82.667969 225.761719 82.667969 226.035156 L 82.667969 276.5625 C 82.667969 276.835938 82.722656 277.097656 82.828125 277.351562 C 82.929688 277.601562 83.078125 277.824219 83.273438 278.019531 C 83.464844 278.210938 83.6875 278.359375 83.9375 278.464844 C 84.191406 278.570312 84.453125 278.621094 84.726562 278.621094 C 85 278.621094 85.261719 278.570312 85.511719 278.464844 C 85.765625 278.359375 85.988281 278.210938 86.179688 278.019531 C 86.375 277.824219 86.523438 277.601562 86.625 277.351562 C 86.730469 277.097656 86.78125 276.835938 86.78125 276.5625 Z M 86.78125 276.5625 " fill-opacity="1" fill-rule="nonzero"/></g><g clip-path="url(#bc9b470769)"><path fill="#ffffff" d="M 119.683594 276.5625 L 119.683594 226.035156 C 119.683594 225.761719 119.632812 225.5 119.527344 225.25 C 119.425781 224.996094 119.273438 224.773438 119.082031 224.582031 C 118.890625 224.390625 118.667969 224.242188 118.414062 224.136719 C 118.164062 224.03125 117.902344 223.980469 117.628906 223.980469 C 117.355469 223.980469 117.09375 224.03125 116.839844 224.136719 C 116.589844 224.242188 116.367188 224.390625 116.175781 224.582031 C 115.980469 224.773438 115.832031 224.996094 115.730469 225.25 C 115.625 225.5 115.570312 225.761719 115.570312 226.035156 L 115.570312 276.5625 C 115.570312 276.835938 115.625 277.097656 115.730469 277.351562 C 115.832031 277.601562 115.980469 277.824219 116.175781 278.019531 C 116.367188 278.210938 116.589844 278.359375 116.839844 278.464844 C 117.09375 278.570312 117.355469 278.621094 117.628906 278.621094 C 117.902344 278.621094 118.164062 278.570312 118.414062 278.464844 C 118.667969 278.359375 118.890625 278.210938 119.082031 278.019531 C 119.273438 277.824219 119.425781 277.601562 119.527344 277.351562 C 119.632812 277.097656 119.683594 276.835938 119.683594 276.5625 Z M 119.683594 276.5625 " fill-opacity="1" fill-rule="nonzero"/></g><path fill="#ffffff" d="M 100.519531 198.925781 C 90.765625 204.097656 82.128906 214.273438 83.164062 226.035156 C 83.167969 226.308594 83.226562 226.566406 83.332031 226.816406 C 83.4375 227.066406 83.585938 227.285156 83.777344 227.476562 C 83.96875 227.667969 84.191406 227.816406 84.441406 227.921875 C 84.6875 228.03125 84.949219 228.085938 85.21875 228.09375 L 117.628906 228.09375 C 117.902344 228.09375 118.164062 228.039062 118.414062 227.9375 C 118.667969 227.832031 118.890625 227.683594 119.082031 227.488281 C 119.273438 227.296875 119.425781 227.074219 119.527344 226.824219 C 119.632812 226.570312 119.683594 226.308594 119.683594 226.035156 C 119.683594 225.761719 119.632812 225.5 119.527344 225.25 C 119.425781 224.996094 119.273438 224.773438 119.082031 224.582031 C 118.890625 224.390625 118.667969 224.242188 118.414062 224.136719 C 118.164062 224.03125 117.902344 223.980469 117.628906 223.980469 L 85.207031 223.980469 L 87.265625 226.035156 C 86.347656 215.648438 94.007812 207.035156 102.539062 202.535156 C 104.890625 201.289062 102.800781 197.738281 100.460938 199.007812 Z M 100.519531 198.925781 " fill-opacity="1" fill-rule="nonzero"/><path fill="#ffffff" d="M 100.472656 202.476562 C 109.050781 207.023438 116.710938 215.648438 115.75 225.976562 L 117.804688 223.921875 L 84.726562 223.921875 C 84.453125 223.921875 84.191406 223.972656 83.9375 224.078125 C 83.6875 224.183594 83.464844 224.332031 83.273438 224.523438 C 83.078125 224.714844 82.929688 224.9375 82.828125 225.191406 C 82.722656 225.441406 82.667969 225.703125 82.667969 225.976562 C 82.667969 226.25 82.722656 226.511719 82.828125 226.765625 C 82.929688 227.015625 83.078125 227.238281 83.273438 227.429688 C 83.464844 227.625 83.6875 227.773438 83.9375 227.878906 C 84.191406 227.980469 84.453125 228.035156 84.726562 228.035156 L 117.851562 228.035156 C 118.121094 228.027344 118.382812 227.972656 118.632812 227.863281 C 118.878906 227.757812 119.101562 227.609375 119.292969 227.417969 C 119.484375 227.226562 119.632812 227.007812 119.738281 226.757812 C 119.847656 226.507812 119.902344 226.25 119.90625 225.976562 C 120.941406 214.226562 112.304688 204.039062 102.550781 198.867188 C 100.203125 197.632812 98.132812 201.21875 100.472656 202.394531 Z M 100.472656 202.476562 " fill-opacity="1" fill-rule="nonzero"/><g clip-path="url(#27ccedd9e2)"><path fill="#ffffff" d="M 95.007812 276.5625 L 95.007812 254.929688 C 95.007812 247.328125 93 239.492188 101.671875 236.058594 C 104.101562 235.097656 103.046875 231.113281 100.578125 232.097656 C 92.046875 235.472656 90.894531 241.78125 90.894531 249.726562 L 90.894531 276.539062 C 90.894531 276.8125 90.949219 277.074219 91.050781 277.328125 C 91.15625 277.578125 91.304688 277.800781 91.496094 277.996094 C 91.691406 278.1875 91.914062 278.335938 92.164062 278.441406 C 92.417969 278.546875 92.679688 278.597656 92.953125 278.597656 C 93.222656 278.597656 93.488281 278.546875 93.738281 278.441406 C 93.992188 278.335938 94.214844 278.1875 94.40625 277.996094 C 94.597656 277.800781 94.746094 277.578125 94.851562 277.328125 C 94.957031 277.074219 95.007812 276.8125 95.007812 276.539062 Z M 95.007812 276.5625 " fill-opacity="1" fill-rule="nonzero"/></g><g clip-path="url(#b51c4eb6a7)"><path fill="#ffffff" d="M 112.632812 276.5625 L 112.632812 249.75 C 112.632812 241.78125 111.460938 235.472656 102.953125 232.121094 C 100.496094 231.148438 99.425781 235.121094 101.859375 236.082031 C 110.507812 239.503906 108.523438 247.328125 108.523438 254.953125 L 108.523438 276.585938 C 108.523438 276.859375 108.574219 277.121094 108.679688 277.375 C 108.78125 277.625 108.929688 277.847656 109.125 278.042969 C 109.316406 278.234375 109.539062 278.382812 109.789062 278.488281 C 110.042969 278.59375 110.304688 278.644531 110.578125 278.644531 C 110.851562 278.644531 111.113281 278.59375 111.363281 278.488281 C 111.617188 278.382812 111.839844 278.234375 112.03125 278.042969 C 112.226562 277.847656 112.375 277.625 112.476562 277.375 C 112.582031 277.121094 112.632812 276.859375 112.632812 276.585938 Z M 112.632812 276.5625 " fill-opacity="1" fill-rule="nonzero"/></g><path fill="#ffffff" d="M 147.003906 109.410156 L 186.957031 109.410156 C 187.230469 109.410156 187.492188 109.355469 187.746094 109.253906 C 187.996094 109.148438 188.21875 109 188.410156 108.808594 C 188.605469 108.613281 188.753906 108.390625 188.859375 108.140625 C 188.960938 107.886719 189.015625 107.625 189.015625 107.351562 C 189.015625 107.082031 188.960938 106.816406 188.859375 106.566406 C 188.753906 106.3125 188.605469 106.09375 188.410156 105.898438 C 188.21875 105.707031 187.996094 105.558594 187.746094 105.453125 C 187.492188 105.347656 187.230469 105.296875 186.957031 105.296875 L 147.003906 105.296875 C 146.734375 105.296875 146.46875 105.347656 146.21875 105.453125 C 145.964844 105.558594 145.742188 105.707031 145.550781 105.898438 C 145.359375 106.09375 145.210938 106.3125 145.105469 106.566406 C 145 106.816406 144.949219 107.082031 144.949219 107.351562 C 144.949219 107.625 145 107.886719 145.105469 108.140625 C 145.210938 108.390625 145.359375 108.613281 145.550781 108.808594 C 145.742188 109 145.964844 109.148438 146.21875 109.253906 C 146.46875 109.355469 146.734375 109.410156 147.003906 109.410156 Z M 147.003906 109.410156 " fill-opacity="1" fill-rule="nonzero"/><path fill="#ffffff" d="M 149.355469 172.863281 L 186.957031 172.863281 C 187.230469 172.863281 187.492188 172.8125 187.746094 172.707031 C 187.996094 172.601562 188.21875 172.453125 188.410156 172.261719 C 188.605469 172.070312 188.753906 171.847656 188.859375 171.59375 C 188.960938 171.34375 189.015625 171.082031 189.015625 170.808594 C 189.015625 170.535156 188.960938 170.273438 188.859375 170.019531 C 188.753906 169.769531 188.605469 169.546875 188.410156 169.351562 C 188.21875 169.160156 187.996094 169.011719 187.746094 168.90625 C 187.492188 168.804688 187.230469 168.75 186.957031 168.75 L 149.355469 168.75 C 149.082031 168.75 148.820312 168.804688 148.570312 168.90625 C 148.316406 169.011719 148.09375 169.160156 147.902344 169.351562 C 147.707031 169.546875 147.558594 169.769531 147.457031 170.019531 C 147.351562 170.273438 147.300781 170.535156 147.300781 170.808594 C 147.300781 171.082031 147.351562 171.34375 147.457031 171.59375 C 147.558594 171.847656 147.707031 172.070312 147.902344 172.261719 C 148.09375 172.453125 148.316406 172.601562 148.570312 172.707031 C 148.820312 172.8125 149.082031 172.863281 149.355469 172.863281 Z M 149.355469 172.863281 " fill-opacity="1" fill-rule="nonzero"/><path fill="#ffffff" d="M 161.398438 150.832031 L 161.398438 170.808594 C 161.398438 171.082031 161.453125 171.34375 161.554688 171.59375 C 161.660156 171.847656 161.808594 172.070312 162.003906 172.261719 C 162.195312 172.453125 162.417969 172.601562 162.667969 172.707031 C 162.921875 172.8125 163.183594 172.863281 163.457031 172.863281 C 163.730469 172.863281 163.992188 172.8125 164.242188 172.707031 C 164.496094 172.601562 164.71875 172.453125 164.910156 172.261719 C 165.101562 172.070312 165.25 171.847656 165.355469 171.59375 C 165.460938 171.34375 165.511719 171.082031 165.511719 170.808594 L 165.511719 150.832031 C 165.511719 150.558594 165.460938 150.296875 165.355469 150.042969 C 165.25 149.792969 165.101562 149.570312 164.910156 149.378906 C 164.71875 149.183594 164.496094 149.035156 164.242188 148.929688 C 163.992188 148.828125 163.730469 148.773438 163.457031 148.773438 C 163.183594 148.773438 162.921875 148.828125 162.667969 148.929688 C 162.417969 149.035156 162.195312 149.183594 162.003906 149.378906 C 161.808594 149.570312 161.660156 149.792969 161.554688 150.042969 C 161.453125 150.296875 161.398438 150.558594 161.398438 150.832031 Z M 161.398438 150.832031 " fill-opacity="1" fill-rule="nonzero"/><path fill="#ffffff" d="M 173.152344 150.832031 L 173.152344 169.632812 C 173.152344 169.90625 173.203125 170.167969 173.308594 170.417969 C 173.410156 170.671875 173.558594 170.894531 173.753906 171.085938 C 173.945312 171.277344 174.167969 171.429688 174.421875 171.53125 C 174.671875 171.636719 174.933594 171.6875 175.207031 171.6875 C 175.480469 171.6875 175.742188 171.636719 175.996094 171.53125 C 176.246094 171.429688 176.46875 171.277344 176.660156 171.085938 C 176.855469 170.894531 177.003906 170.671875 177.105469 170.417969 C 177.210938 170.167969 177.261719 169.90625 177.261719 169.632812 L 177.261719 150.832031 C 177.261719 150.558594 177.210938 150.296875 177.105469 150.042969 C 177.003906 149.792969 176.855469 149.570312 176.660156 149.378906 C 176.46875 149.183594 176.246094 149.035156 175.996094 148.929688 C 175.742188 148.828125 175.480469 148.773438 175.207031 148.773438 C 174.933594 148.773438 174.671875 148.828125 174.421875 148.929688 C 174.167969 149.035156 173.945312 149.183594 173.753906 149.378906 C 173.558594 149.570312 173.410156 149.792969 173.308594 150.042969 C 173.203125 150.296875 173.152344 150.558594 173.152344 150.832031 Z M 173.152344 150.832031 " fill-opacity="1" fill-rule="nonzero"/><path fill="#ffffff" d="M 186.078125 150.832031 L 186.078125 169.632812 C 186.078125 169.90625 186.128906 170.167969 186.234375 170.417969 C 186.335938 170.671875 186.484375 170.894531 186.679688 171.085938 C 186.871094 171.277344 187.09375 171.429688 187.347656 171.53125 C 187.597656 171.636719 187.859375 171.6875 188.132812 171.6875 C 188.40625 171.6875 188.667969 171.636719 188.921875 171.53125 C 189.171875 171.429688 189.394531 171.277344 189.585938 171.085938 C 189.78125 170.894531 189.929688 170.671875 190.03125 170.417969 C 190.136719 170.167969 190.191406 169.90625 190.191406 169.632812 L 190.191406 150.832031 C 190.191406 150.558594 190.136719 150.296875 190.03125 150.042969 C 189.929688 149.792969 189.78125 149.570312 189.585938 149.378906 C 189.394531 149.183594 189.171875 149.035156 188.921875 148.929688 C 188.667969 148.828125 188.40625 148.773438 188.132812 148.773438 C 187.859375 148.773438 187.597656 148.828125 187.347656 148.929688 C 187.09375 149.035156 186.871094 149.183594 186.679688 149.378906 C 186.484375 149.570312 186.335938 149.792969 186.234375 150.042969 C 186.128906 150.296875 186.078125 150.558594 186.078125 150.832031 Z M 186.078125 150.832031 " fill-opacity="1" fill-rule="nonzero"/><g clip-path="url(#2c86c427c8)"><path fill="#ffffff" d="M 160.8125 276.5625 L 160.8125 229.113281 C 160.8125 210.726562 172.375 198.117188 188.390625 189.679688 C 190.742188 188.445312 188.660156 184.898438 186.3125 186.152344 C 170.53125 194.472656 156.652344 208.164062 156.6875 226.953125 C 156.6875 243.496094 156.6875 260.042969 156.6875 276.589844 C 156.6875 276.859375 156.738281 277.121094 156.84375 277.375 C 156.949219 277.625 157.097656 277.847656 157.289062 278.042969 C 157.484375 278.234375 157.707031 278.382812 157.957031 278.488281 C 158.210938 278.59375 158.472656 278.644531 158.746094 278.644531 C 159.015625 278.644531 159.28125 278.59375 159.53125 278.488281 C 159.785156 278.382812 160.003906 278.234375 160.199219 278.042969 C 160.390625 277.847656 160.539062 277.625 160.644531 277.375 C 160.75 277.121094 160.800781 276.859375 160.800781 276.589844 Z M 160.8125 276.5625 " fill-opacity="1" fill-rule="nonzero"/></g><g clip-path="url(#292e7c4041)"><path fill="#ffffff" d="M 320.917969 274.507812 L 188.132812 274.507812 C 187.859375 274.507812 187.597656 274.558594 187.347656 274.664062 C 187.09375 274.769531 186.871094 274.917969 186.679688 275.109375 C 186.484375 275.304688 186.335938 275.527344 186.234375 275.777344 C 186.128906 276.03125 186.078125 276.292969 186.078125 276.5625 C 186.078125 276.835938 186.128906 277.097656 186.234375 277.351562 C 186.335938 277.601562 186.484375 277.824219 186.679688 278.019531 C 186.871094 278.210938 187.09375 278.359375 187.347656 278.464844 C 187.597656 278.570312 187.859375 278.621094 188.132812 278.621094 L 320.917969 278.621094 C 321.191406 278.621094 321.453125 278.570312 321.703125 278.464844 C 321.957031 278.359375 322.179688 278.210938 322.371094 278.019531 C 322.5625 277.824219 322.710938 277.601562 322.816406 277.351562 C 322.921875 277.097656 322.972656 276.835938 322.972656 276.5625 C 322.972656 276.292969 322.921875 276.03125 322.816406 275.777344 C 322.710938 275.527344 322.5625 275.304688 322.371094 275.109375 C 322.179688 274.917969 321.957031 274.769531 321.703125 274.664062 C 321.453125 274.558594 321.191406 274.507812 320.917969 274.507812 Z M 320.917969 274.507812 " fill-opacity="1" fill-rule="nonzero"/></g><g clip-path="url(#eab40efa96)"><path fill="#ffffff" d="M 307.699219 276.5625 L 307.699219 183.734375 C 307.695312 183.460938 307.644531 183.199219 307.539062 182.945312 C 307.4375 182.695312 307.289062 182.472656 307.09375 182.277344 C 306.902344 182.085938 306.679688 181.9375 306.429688 181.832031 C 306.175781 181.730469 305.914062 181.675781 305.640625 181.675781 C 305.367188 181.675781 305.105469 181.730469 304.855469 181.832031 C 304.601562 181.9375 304.378906 182.085938 304.1875 182.277344 C 303.992188 182.472656 303.84375 182.695312 303.742188 182.945312 C 303.636719 183.199219 303.585938 183.460938 303.585938 183.734375 L 303.585938 276.5625 C 303.585938 276.835938 303.636719 277.097656 303.742188 277.351562 C 303.84375 277.601562 303.992188 277.824219 304.1875 278.019531 C 304.378906 278.210938 304.601562 278.359375 304.855469 278.464844 C 305.105469 278.570312 305.367188 278.621094 305.640625 278.621094 C 305.914062 278.621094 306.175781 278.570312 306.429688 278.464844 C 306.679688 278.359375 306.902344 278.210938 307.09375 278.019531 C 307.289062 277.824219 307.4375 277.601562 307.539062 277.351562 C 307.644531 277.097656 307.695312 276.835938 307.699219 276.5625 Z M 307.699219 276.5625 " fill-opacity="1" fill-rule="nonzero"/></g><path fill="#ffffff" d="M 307.699219 170.808594 L 307.699219 150.832031 C 307.695312 150.558594 307.644531 150.296875 307.539062 150.042969 C 307.4375 149.792969 307.289062 149.570312 307.09375 149.378906 C 306.902344 149.183594 306.679688 149.035156 306.429688 148.929688 C 306.175781 148.828125 305.914062 148.773438 305.640625 148.773438 C 305.367188 148.773438 305.105469 148.828125 304.855469 148.929688 C 304.601562 149.035156 304.378906 149.183594 304.1875 149.378906 C 303.992188 149.570312 303.84375 149.792969 303.742188 150.042969 C 303.636719 150.296875 303.585938 150.558594 303.585938 150.832031 L 303.585938 170.808594 C 303.585938 171.082031 303.636719 171.34375 303.742188 171.59375 C 303.84375 171.847656 303.992188 172.070312 304.1875 172.261719 C 304.378906 172.453125 304.601562 172.601562 304.855469 172.707031 C 305.105469 172.8125 305.367188 172.863281 305.640625 172.863281 C 305.914062 172.863281 306.175781 172.8125 306.429688 172.707031 C 306.679688 172.601562 306.902344 172.453125 307.09375 172.261719 C 307.289062 172.070312 307.4375 171.847656 307.539062 171.59375 C 307.644531 171.34375 307.695312 171.082031 307.699219 170.808594 Z M 307.699219 170.808594 " fill-opacity="1" fill-rule="nonzero"/><g clip-path="url(#4ba9f5d629)"><path fill="#ffffff" d="M 248.945312 276.5625 L 248.945312 120.277344 C 248.945312 120.007812 248.890625 119.742188 248.785156 119.492188 C 248.683594 119.238281 248.535156 119.019531 248.339844 118.824219 C 248.148438 118.632812 247.925781 118.484375 247.675781 118.378906 C 247.421875 118.273438 247.160156 118.222656 246.886719 118.222656 C 246.613281 118.222656 246.351562 118.273438 246.101562 118.378906 C 245.847656 118.484375 245.625 118.632812 245.433594 118.824219 C 245.238281 119.019531 245.089844 119.238281 244.988281 119.492188 C 244.882812 119.742188 244.832031 120.007812 244.832031 120.277344 L 244.832031 276.5625 C 244.832031 276.835938 244.882812 277.097656 244.988281 277.351562 C 245.089844 277.601562 245.238281 277.824219 245.433594 278.019531 C 245.625 278.210938 245.847656 278.359375 246.101562 278.464844 C 246.351562 278.570312 246.613281 278.621094 246.886719 278.621094 C 247.160156 278.621094 247.421875 278.570312 247.675781 278.464844 C 247.925781 278.359375 248.148438 278.210938 248.339844 278.019531 C 248.535156 277.824219 248.683594 277.601562 248.785156 277.351562 C 248.890625 277.097656 248.945312 276.835938 248.945312 276.5625 Z M 248.945312 276.5625 " fill-opacity="1" fill-rule="nonzero"/></g><g clip-path="url(#de83abc7c8)"><path fill="#ffffff" d="M 227.792969 276.5625 L 227.792969 120.277344 C 227.792969 120.007812 227.738281 119.742188 227.636719 119.492188 C 227.53125 119.238281 227.382812 119.019531 227.191406 118.824219 C 226.996094 118.632812 226.773438 118.484375 226.523438 118.378906 C 226.269531 118.273438 226.007812 118.222656 225.734375 118.222656 C 225.464844 118.222656 225.199219 118.273438 224.949219 118.378906 C 224.695312 118.484375 224.472656 118.632812 224.28125 118.824219 C 224.089844 119.019531 223.941406 119.238281 223.835938 119.492188 C 223.730469 119.742188 223.679688 120.007812 223.679688 120.277344 L 223.679688 276.5625 C 223.679688 276.835938 223.730469 277.097656 223.835938 277.351562 C 223.941406 277.601562 224.089844 277.824219 224.28125 278.019531 C 224.472656 278.210938 224.695312 278.359375 224.949219 278.464844 C 225.199219 278.570312 225.464844 278.621094 225.734375 278.621094 C 226.007812 278.621094 226.269531 278.570312 226.523438 278.464844 C 226.773438 278.359375 226.996094 278.210938 227.191406 278.019531 C 227.382812 277.824219 227.53125 277.601562 227.636719 277.351562 C 227.738281 277.097656 227.792969 276.835938 227.792969 276.5625 Z M 227.792969 276.5625 " fill-opacity="1" fill-rule="nonzero"/></g><path fill="#ffffff" d="M 225.734375 185.789062 L 311.515625 185.789062 C 311.789062 185.789062 312.050781 185.738281 312.304688 185.632812 C 312.554688 185.527344 312.777344 185.378906 312.96875 185.1875 C 313.164062 184.996094 313.3125 184.773438 313.417969 184.519531 C 313.519531 184.269531 313.574219 184.007812 313.574219 183.734375 C 313.574219 183.460938 313.519531 183.199219 313.417969 182.945312 C 313.3125 182.695312 313.164062 182.472656 312.96875 182.277344 C 312.777344 182.085938 312.554688 181.9375 312.304688 181.832031 C 312.050781 181.730469 311.789062 181.675781 311.515625 181.675781 L 225.734375 181.675781 C 225.464844 181.675781 225.199219 181.730469 224.949219 181.832031 C 224.695312 181.9375 224.472656 182.085938 224.28125 182.277344 C 224.089844 182.472656 223.941406 182.695312 223.835938 182.945312 C 223.730469 183.199219 223.679688 183.460938 223.679688 183.734375 C 223.679688 184.007812 223.730469 184.269531 223.835938 184.519531 C 223.941406 184.773438 224.089844 184.996094 224.28125 185.1875 C 224.472656 185.378906 224.695312 185.527344 224.949219 185.632812 C 225.199219 185.738281 225.464844 185.789062 225.734375 185.789062 Z M 225.734375 185.789062 " fill-opacity="1" fill-rule="nonzero"/><path fill="#ffffff" d="M 226.910156 172.863281 L 316.214844 172.863281 C 316.488281 172.863281 316.75 172.8125 317.003906 172.707031 C 317.253906 172.601562 317.476562 172.453125 317.671875 172.261719 C 317.863281 172.070312 318.011719 171.847656 318.117188 171.59375 C 318.222656 171.34375 318.273438 171.082031 318.273438 170.808594 C 318.273438 170.535156 318.222656 170.273438 318.117188 170.019531 C 318.011719 169.769531 317.863281 169.546875 317.671875 169.351562 C 317.476562 169.160156 317.253906 169.011719 317.003906 168.90625 C 316.75 168.804688 316.488281 168.75 316.214844 168.75 L 226.910156 168.75 C 226.636719 168.75 226.375 168.804688 226.125 168.90625 C 225.871094 169.011719 225.648438 169.160156 225.457031 169.351562 C 225.265625 169.546875 225.113281 169.769531 225.011719 170.019531 C 224.90625 170.273438 224.855469 170.535156 224.855469 170.808594 C 224.855469 171.082031 224.90625 171.34375 225.011719 171.59375 C 225.113281 171.847656 225.265625 172.070312 225.457031 172.261719 C 225.648438 172.453125 225.871094 172.601562 226.125 172.707031 C 226.375 172.8125 226.636719 172.863281 226.910156 172.863281 Z M 226.910156 172.863281 " fill-opacity="1" fill-rule="nonzero"/><path fill="#ffffff" d="M 313.738281 184.367188 L 318.636719 171.289062 C 319.566406 168.808594 315.59375 167.765625 314.675781 170.195312 L 309.765625 183.273438 C 308.835938 185.753906 312.808594 186.800781 313.726562 184.367188 Z M 313.738281 184.367188 " fill-opacity="1" fill-rule="nonzero"/><path fill="#ffffff" d="M 185.78125 152.886719 L 310.339844 152.886719 C 310.613281 152.886719 310.875 152.835938 311.128906 152.730469 C 311.378906 152.625 311.601562 152.476562 311.796875 152.285156 C 311.988281 152.09375 312.136719 151.871094 312.242188 151.617188 C 312.34375 151.367188 312.398438 151.105469 312.398438 150.832031 C 312.398438 150.558594 312.34375 150.296875 312.242188 150.042969 C 312.136719 149.792969 311.988281 149.570312 311.796875 149.378906 C 311.601562 149.183594 311.378906 149.035156 311.128906 148.929688 C 310.875 148.828125 310.613281 148.773438 310.339844 148.773438 L 185.78125 148.773438 C 185.511719 148.773438 185.246094 148.828125 184.996094 148.929688 C 184.742188 149.035156 184.523438 149.183594 184.328125 149.378906 C 184.136719 149.570312 183.988281 149.792969 183.882812 150.042969 C 183.777344 150.296875 183.726562 150.558594 183.726562 150.832031 C 183.726562 151.105469 183.777344 151.367188 183.882812 151.617188 C 183.988281 151.871094 184.136719 152.09375 184.328125 152.285156 C 184.523438 152.476562 184.742188 152.625 184.996094 152.730469 C 185.246094 152.835938 185.511719 152.886719 185.78125 152.886719 Z M 185.78125 152.886719 " fill-opacity="1" fill-rule="nonzero"/><path fill="#ffffff" d="M 246.886719 138.785156 L 310.339844 138.785156 C 310.613281 138.785156 310.875 138.734375 311.128906 138.628906 C 311.378906 138.527344 311.601562 138.378906 311.796875 138.183594 C 311.988281 137.992188 312.136719 137.769531 312.242188 137.515625 C 312.34375 137.265625 312.398438 137.003906 312.398438 136.730469 C 312.398438 136.457031 312.34375 136.195312 312.242188 135.941406 C 312.136719 135.691406 311.988281 135.46875 311.796875 135.277344 C 311.601562 135.082031 311.378906 134.933594 311.128906 134.832031 C 310.875 134.726562 310.613281 134.671875 310.339844 134.671875 L 246.886719 134.671875 C 246.613281 134.671875 246.351562 134.726562 246.101562 134.832031 C 245.847656 134.933594 245.625 135.082031 245.433594 135.277344 C 245.238281 135.46875 245.089844 135.691406 244.988281 135.941406 C 244.882812 136.195312 244.832031 136.457031 244.832031 136.730469 C 244.832031 137.003906 244.882812 137.265625 244.988281 137.515625 C 245.089844 137.769531 245.238281 137.992188 245.433594 138.183594 C 245.625 138.378906 245.847656 138.527344 246.101562 138.628906 C 246.351562 138.734375 246.613281 138.785156 246.886719 138.785156 Z M 246.886719 138.785156 " fill-opacity="1" fill-rule="nonzero"/><path fill="#ffffff" d="M 312.398438 150.832031 L 312.398438 136.730469 C 312.398438 136.457031 312.34375 136.195312 312.242188 135.941406 C 312.136719 135.691406 311.988281 135.46875 311.796875 135.277344 C 311.601562 135.082031 311.378906 134.933594 311.128906 134.832031 C 310.875 134.726562 310.613281 134.671875 310.339844 134.671875 C 310.070312 134.671875 309.804688 134.726562 309.554688 134.832031 C 309.300781 134.933594 309.078125 135.082031 308.886719 135.277344 C 308.695312 135.46875 308.546875 135.691406 308.441406 135.941406 C 308.335938 136.195312 308.285156 136.457031 308.285156 136.730469 L 308.285156 150.832031 C 308.285156 151.105469 308.335938 151.367188 308.441406 151.617188 C 308.546875 151.871094 308.695312 152.09375 308.886719 152.285156 C 309.078125 152.476562 309.300781 152.625 309.554688 152.730469 C 309.804688 152.835938 310.070312 152.886719 310.339844 152.886719 C 310.613281 152.886719 310.875 152.835938 311.128906 152.730469 C 311.378906 152.625 311.601562 152.476562 311.796875 152.285156 C 311.988281 152.09375 312.136719 151.871094 312.242188 151.617188 C 312.34375 151.367188 312.398438 151.105469 312.398438 150.832031 Z M 312.398438 150.832031 " fill-opacity="1" fill-rule="nonzero"/><path fill="#ffffff" d="M 188.132812 122.335938 L 246.886719 122.335938 C 247.160156 122.335938 247.421875 122.285156 247.675781 122.179688 C 247.925781 122.074219 248.148438 121.925781 248.339844 121.734375 C 248.535156 121.539062 248.683594 121.316406 248.785156 121.066406 C 248.890625 120.8125 248.945312 120.550781 248.945312 120.277344 C 248.945312 120.007812 248.890625 119.742188 248.785156 119.492188 C 248.683594 119.238281 248.535156 119.019531 248.339844 118.824219 C 248.148438 118.632812 247.925781 118.484375 247.675781 118.378906 C 247.421875 118.273438 247.160156 118.222656 246.886719 118.222656 L 188.132812 118.222656 C 187.859375 118.222656 187.597656 118.273438 187.347656 118.378906 C 187.09375 118.484375 186.871094 118.632812 186.679688 118.824219 C 186.484375 119.019531 186.335938 119.238281 186.234375 119.492188 C 186.128906 119.742188 186.078125 120.007812 186.078125 120.277344 C 186.078125 120.550781 186.128906 120.8125 186.234375 121.066406 C 186.335938 121.316406 186.484375 121.539062 186.679688 121.734375 C 186.871094 121.925781 187.09375 122.074219 187.347656 122.179688 C 187.597656 122.285156 187.859375 122.335938 188.132812 122.335938 Z M 188.132812 122.335938 " fill-opacity="1" fill-rule="nonzero"/><path fill="#ffffff" d="M 243.066406 116.753906 L 243.066406 95.964844 C 243.066406 88.988281 242.339844 85.050781 235.511719 81.183594 C 233.160156 79.878906 231.128906 83.429688 233.433594 84.710938 C 240.402344 88.667969 238.957031 93.183594 238.957031 100.171875 L 238.957031 116.753906 C 238.957031 117.027344 239.007812 117.289062 239.113281 117.539062 C 239.214844 117.792969 239.363281 118.015625 239.558594 118.207031 C 239.75 118.402344 239.972656 118.550781 240.226562 118.652344 C 240.476562 118.757812 240.738281 118.808594 241.011719 118.808594 C 241.285156 118.808594 241.546875 118.757812 241.796875 118.652344 C 242.050781 118.550781 242.273438 118.402344 242.464844 118.207031 C 242.660156 118.015625 242.808594 117.792969 242.910156 117.539062 C 243.015625 117.289062 243.066406 117.027344 243.066406 116.753906 Z M 243.066406 116.753906 " fill-opacity="1" fill-rule="nonzero"/><path fill="#ffffff" d="M 230.140625 116.753906 L 230.140625 100.136719 C 230.140625 93.085938 228.636719 88.667969 235.664062 84.675781 C 238.015625 83.371094 235.898438 79.808594 233.585938 81.148438 C 226.78125 85.003906 226.03125 88.964844 226.03125 95.929688 L 226.03125 116.753906 C 226.03125 117.027344 226.082031 117.289062 226.1875 117.539062 C 226.289062 117.792969 226.4375 118.015625 226.632812 118.207031 C 226.824219 118.402344 227.046875 118.550781 227.296875 118.652344 C 227.550781 118.757812 227.8125 118.808594 228.085938 118.808594 C 228.359375 118.808594 228.621094 118.757812 228.871094 118.652344 C 229.125 118.550781 229.347656 118.402344 229.539062 118.207031 C 229.734375 118.015625 229.882812 117.792969 229.984375 117.539062 C 230.089844 117.289062 230.140625 117.027344 230.140625 116.753906 Z M 230.140625 116.753906 " fill-opacity="1" fill-rule="nonzero"/><g clip-path="url(#2963edc89c)"><path fill="#ffffff" d="M 237.191406 82.675781 L 237.191406 73.277344 C 237.191406 73.003906 237.140625 72.742188 237.035156 72.488281 C 236.933594 72.238281 236.78125 72.015625 236.589844 71.820312 C 236.398438 71.628906 236.175781 71.480469 235.921875 71.375 C 235.671875 71.273438 235.410156 71.21875 235.136719 71.21875 C 234.863281 71.21875 234.601562 71.273438 234.347656 71.375 C 234.097656 71.480469 233.875 71.628906 233.683594 71.820312 C 233.488281 72.015625 233.339844 72.238281 233.238281 72.488281 C 233.132812 72.742188 233.078125 73.003906 233.078125 73.277344 L 233.078125 82.675781 C 233.078125 82.949219 233.132812 83.210938 233.238281 83.464844 C 233.339844 83.714844 233.488281 83.9375 233.683594 84.128906 C 233.875 84.324219 234.097656 84.472656 234.347656 84.578125 C 234.601562 84.679688 234.863281 84.734375 235.136719 84.734375 C 235.410156 84.734375 235.671875 84.679688 235.921875 84.578125 C 236.175781 84.472656 236.398438 84.324219 236.589844 84.128906 C 236.78125 83.9375 236.933594 83.714844 237.035156 83.464844 C 237.140625 83.210938 237.191406 82.949219 237.191406 82.675781 Z M 237.191406 82.675781 " fill-opacity="1" fill-rule="nonzero"/></g><path fill="#ffffff" d="M 241.011719 93.546875 L 228.085938 93.546875 C 227.8125 93.546875 227.550781 93.597656 227.296875 93.703125 C 227.046875 93.808594 226.824219 93.957031 226.632812 94.148438 C 226.4375 94.339844 226.289062 94.5625 226.1875 94.816406 C 226.082031 95.066406 226.03125 95.328125 226.03125 95.601562 C 226.03125 95.875 226.082031 96.136719 226.1875 96.390625 C 226.289062 96.640625 226.4375 96.863281 226.632812 97.054688 C 226.824219 97.25 227.046875 97.398438 227.296875 97.503906 C 227.550781 97.605469 227.8125 97.660156 228.085938 97.660156 L 241.011719 97.660156 C 241.285156 97.660156 241.546875 97.605469 241.796875 97.503906 C 242.050781 97.398438 242.273438 97.25 242.464844 97.054688 C 242.660156 96.863281 242.808594 96.640625 242.910156 96.390625 C 243.015625 96.136719 243.066406 95.875 243.066406 95.601562 C 243.066406 95.328125 243.015625 95.066406 242.910156 94.816406 C 242.808594 94.5625 242.660156 94.339844 242.464844 94.148438 C 242.273438 93.957031 242.050781 93.808594 241.796875 93.703125 C 241.546875 93.597656 241.285156 93.546875 241.011719 93.546875 Z M 241.011719 93.546875 " fill-opacity="1" fill-rule="nonzero"/><g clip-path="url(#496afaa738)"><path fill="#ffffff" d="M 292.421875 276.5625 L 292.421875 226.035156 C 292.421875 225.761719 292.367188 225.5 292.265625 225.25 C 292.160156 224.996094 292.011719 224.773438 291.820312 224.582031 C 291.625 224.390625 291.402344 224.242188 291.152344 224.136719 C 290.898438 224.03125 290.636719 223.980469 290.363281 223.980469 C 290.09375 223.980469 289.828125 224.03125 289.578125 224.136719 C 289.324219 224.242188 289.105469 224.390625 288.910156 224.582031 C 288.71875 224.773438 288.570312 224.996094 288.464844 225.25 C 288.359375 225.5 288.308594 225.761719 288.308594 226.035156 L 288.308594 276.5625 C 288.308594 276.835938 288.359375 277.097656 288.464844 277.351562 C 288.570312 277.601562 288.71875 277.824219 288.910156 278.019531 C 289.105469 278.210938 289.324219 278.359375 289.578125 278.464844 C 289.828125 278.570312 290.09375 278.621094 290.363281 278.621094 C 290.636719 278.621094 290.898438 278.570312 291.152344 278.464844 C 291.402344 278.359375 291.625 278.210938 291.820312 278.019531 C 292.011719 277.824219 292.160156 277.601562 292.265625 277.351562 C 292.367188 277.097656 292.421875 276.835938 292.421875 276.5625 Z M 292.421875 276.5625 " fill-opacity="1" fill-rule="nonzero"/></g><g clip-path="url(#fd875b61ee)"><path fill="#ffffff" d="M 259.519531 276.5625 L 259.519531 226.035156 C 259.519531 225.761719 259.46875 225.5 259.363281 225.25 C 259.257812 224.996094 259.109375 224.773438 258.917969 224.582031 C 258.722656 224.390625 258.5 224.242188 258.25 224.136719 C 257.996094 224.03125 257.734375 223.980469 257.460938 223.980469 C 257.191406 223.980469 256.925781 224.03125 256.675781 224.136719 C 256.421875 224.242188 256.203125 224.390625 256.007812 224.582031 C 255.816406 224.773438 255.667969 224.996094 255.5625 225.25 C 255.457031 225.5 255.40625 225.761719 255.40625 226.035156 L 255.40625 276.5625 C 255.40625 276.835938 255.457031 277.097656 255.5625 277.351562 C 255.667969 277.601562 255.816406 277.824219 256.007812 278.019531 C 256.203125 278.210938 256.421875 278.359375 256.675781 278.464844 C 256.925781 278.570312 257.191406 278.621094 257.460938 278.621094 C 257.734375 278.621094 257.996094 278.570312 258.25 278.464844 C 258.5 278.359375 258.722656 278.210938 258.917969 278.019531 C 259.109375 277.824219 259.257812 277.601562 259.363281 277.351562 C 259.46875 277.097656 259.519531 276.835938 259.519531 276.5625 Z M 259.519531 276.5625 " fill-opacity="1" fill-rule="nonzero"/></g><path fill="#ffffff" d="M 272.503906 202.476562 C 281.082031 207.023438 288.742188 215.648438 287.78125 225.976562 L 289.835938 223.921875 L 257.460938 223.921875 C 257.191406 223.921875 256.925781 223.972656 256.675781 224.078125 C 256.421875 224.183594 256.203125 224.332031 256.007812 224.523438 C 255.816406 224.714844 255.667969 224.9375 255.5625 225.191406 C 255.457031 225.441406 255.40625 225.703125 255.40625 225.976562 C 255.40625 226.25 255.457031 226.511719 255.5625 226.765625 C 255.667969 227.015625 255.816406 227.238281 256.007812 227.429688 C 256.203125 227.625 256.421875 227.773438 256.675781 227.878906 C 256.925781 227.980469 257.191406 228.035156 257.460938 228.035156 L 289.882812 228.035156 C 290.152344 228.027344 290.414062 227.972656 290.664062 227.863281 C 290.910156 227.757812 291.132812 227.609375 291.324219 227.417969 C 291.515625 227.226562 291.664062 227.007812 291.769531 226.757812 C 291.878906 226.507812 291.933594 226.25 291.941406 225.976562 C 292.972656 214.226562 284.335938 204.039062 274.582031 198.867188 C 272.234375 197.632812 270.164062 201.21875 272.503906 202.394531 Z M 272.503906 202.476562 " fill-opacity="1" fill-rule="nonzero"/><path fill="#ffffff" d="M 272.539062 198.925781 C 262.785156 204.097656 254.148438 214.273438 255.183594 226.035156 C 255.1875 226.308594 255.246094 226.566406 255.351562 226.816406 C 255.457031 227.066406 255.605469 227.285156 255.796875 227.476562 C 255.988281 227.667969 256.210938 227.816406 256.460938 227.925781 C 256.707031 228.03125 256.96875 228.085938 257.238281 228.09375 L 290.363281 228.09375 C 290.636719 228.09375 290.898438 228.039062 291.152344 227.9375 C 291.402344 227.832031 291.625 227.683594 291.820312 227.488281 C 292.011719 227.296875 292.160156 227.074219 292.265625 226.824219 C 292.367188 226.570312 292.421875 226.308594 292.421875 226.035156 C 292.421875 225.761719 292.367188 225.5 292.265625 225.25 C 292.160156 224.996094 292.011719 224.773438 291.820312 224.582031 C 291.625 224.390625 291.402344 224.242188 291.152344 224.136719 C 290.898438 224.03125 290.636719 223.980469 290.363281 223.980469 L 257.238281 223.980469 L 259.296875 226.035156 C 258.378906 215.648438 266.039062 207.035156 274.570312 202.535156 C 276.921875 201.289062 274.832031 197.738281 272.492188 199.007812 Z M 272.539062 198.925781 " fill-opacity="1" fill-rule="nonzero"/><g clip-path="url(#1fd69e9b81)"><path fill="#ffffff" d="M 284.195312 276.5625 L 284.195312 249.75 C 284.195312 241.78125 283.019531 235.472656 274.511719 232.121094 C 272.058594 231.148438 270.988281 235.121094 273.421875 236.082031 C 282.070312 239.503906 280.082031 247.328125 280.082031 254.953125 L 280.082031 276.585938 C 280.082031 276.859375 280.136719 277.121094 280.238281 277.375 C 280.34375 277.625 280.492188 277.847656 280.683594 278.042969 C 280.878906 278.234375 281.101562 278.382812 281.351562 278.488281 C 281.605469 278.59375 281.867188 278.644531 282.140625 278.644531 C 282.410156 278.644531 282.675781 278.59375 282.925781 278.488281 C 283.179688 278.382812 283.402344 278.234375 283.59375 278.042969 C 283.785156 277.847656 283.933594 277.625 284.039062 277.375 C 284.144531 277.121094 284.195312 276.859375 284.195312 276.585938 Z M 284.195312 276.5625 " fill-opacity="1" fill-rule="nonzero"/></g><g clip-path="url(#e05fa6983e)"><path fill="#ffffff" d="M 266.570312 276.5625 L 266.570312 254.929688 C 266.570312 247.328125 264.558594 239.492188 273.230469 236.058594 C 275.664062 235.097656 274.605469 231.113281 272.140625 232.097656 C 263.609375 235.472656 262.457031 241.78125 262.457031 249.726562 L 262.457031 276.539062 C 262.457031 276.8125 262.507812 277.074219 262.613281 277.328125 C 262.71875 277.578125 262.867188 277.800781 263.058594 277.996094 C 263.25 278.1875 263.472656 278.335938 263.726562 278.441406 C 263.976562 278.546875 264.242188 278.597656 264.511719 278.597656 C 264.785156 278.597656 265.046875 278.546875 265.300781 278.441406 C 265.550781 278.335938 265.773438 278.1875 265.96875 277.996094 C 266.160156 277.800781 266.308594 277.578125 266.414062 277.328125 C 266.515625 277.074219 266.570312 276.8125 266.570312 276.539062 Z M 266.570312 276.5625 " fill-opacity="1" fill-rule="nonzero"/></g><path fill="#ffffff" d="M 228.085938 105.296875 L 188.132812 105.296875 C 187.859375 105.296875 187.597656 105.347656 187.347656 105.453125 C 187.09375 105.558594 186.871094 105.707031 186.679688 105.898438 C 186.484375 106.09375 186.335938 106.3125 186.234375 106.566406 C 186.128906 106.816406 186.078125 107.082031 186.078125 107.351562 C 186.078125 107.625 186.128906 107.886719 186.234375 108.140625 C 186.335938 108.390625 186.484375 108.613281 186.679688 108.808594 C 186.871094 109 187.09375 109.148438 187.347656 109.253906 C 187.597656 109.355469 187.859375 109.410156 188.132812 109.410156 L 228.085938 109.410156 C 228.359375 109.410156 228.621094 109.355469 228.871094 109.253906 C 229.125 109.148438 229.347656 109 229.539062 108.808594 C 229.734375 108.613281 229.882812 108.390625 229.984375 108.140625 C 230.089844 107.886719 230.140625 107.625 230.140625 107.351562 C 230.140625 107.082031 230.089844 106.816406 229.984375 106.566406 C 229.882812 106.3125 229.734375 106.09375 229.539062 105.898438 C 229.347656 105.707031 229.125 105.558594 228.871094 105.453125 C 228.621094 105.347656 228.359375 105.296875 228.085938 105.296875 Z M 228.085938 105.296875 " fill-opacity="1" fill-rule="nonzero"/><path fill="#ffffff" d="M 225.734375 168.75 L 188.132812 168.75 C 187.859375 168.75 187.597656 168.804688 187.347656 168.90625 C 187.09375 169.011719 186.871094 169.160156 186.679688 169.351562 C 186.484375 169.546875 186.335938 169.769531 186.234375 170.019531 C 186.128906 170.273438 186.078125 170.535156 186.078125 170.808594 C 186.078125 171.082031 186.128906 171.34375 186.234375 171.59375 C 186.335938 171.847656 186.484375 172.070312 186.679688 172.261719 C 186.871094 172.453125 187.09375 172.601562 187.347656 172.707031 C 187.597656 172.8125 187.859375 172.863281 188.132812 172.863281 L 225.734375 172.863281 C 226.007812 172.863281 226.269531 172.8125 226.523438 172.707031 C 226.773438 172.601562 226.996094 172.453125 227.191406 172.261719 C 227.382812 172.070312 227.53125 171.847656 227.636719 171.59375 C 227.738281 171.34375 227.792969 171.082031 227.792969 170.808594 C 227.792969 170.535156 227.738281 170.273438 227.636719 170.019531 C 227.53125 169.769531 227.382812 169.546875 227.191406 169.351562 C 226.996094 169.160156 226.773438 169.011719 226.523438 168.90625 C 226.269531 168.804688 226.007812 168.75 225.734375 168.75 Z M 225.734375 168.75 " fill-opacity="1" fill-rule="nonzero"/><path fill="#ffffff" d="M 209.578125 150.832031 L 209.578125 170.808594 C 209.578125 171.082031 209.628906 171.34375 209.734375 171.59375 C 209.839844 171.847656 209.988281 172.070312 210.179688 172.261719 C 210.375 172.453125 210.597656 172.601562 210.847656 172.707031 C 211.101562 172.8125 211.363281 172.863281 211.632812 172.863281 C 211.90625 172.863281 212.167969 172.8125 212.421875 172.707031 C 212.671875 172.601562 212.894531 172.453125 213.089844 172.261719 C 213.28125 172.070312 213.429688 171.847656 213.535156 171.59375 C 213.640625 171.34375 213.691406 171.082031 213.691406 170.808594 L 213.691406 150.832031 C 213.691406 150.558594 213.640625 150.296875 213.535156 150.042969 C 213.429688 149.792969 213.28125 149.570312 213.089844 149.378906 C 212.894531 149.183594 212.671875 149.035156 212.421875 148.929688 C 212.167969 148.828125 211.90625 148.773438 211.632812 148.773438 C 211.363281 148.773438 211.101562 148.828125 210.847656 148.929688 C 210.597656 149.035156 210.375 149.183594 210.179688 149.378906 C 209.988281 149.570312 209.839844 149.792969 209.734375 150.042969 C 209.628906 150.296875 209.578125 150.558594 209.578125 150.832031 Z M 209.578125 150.832031 " fill-opacity="1" fill-rule="nonzero"/><path fill="#ffffff" d="M 197.828125 150.832031 L 197.828125 169.632812 C 197.828125 169.90625 197.878906 170.167969 197.984375 170.417969 C 198.089844 170.671875 198.238281 170.894531 198.429688 171.085938 C 198.621094 171.277344 198.84375 171.429688 199.097656 171.53125 C 199.347656 171.636719 199.609375 171.6875 199.882812 171.6875 C 200.15625 171.6875 200.417969 171.636719 200.671875 171.53125 C 200.921875 171.429688 201.144531 171.277344 201.339844 171.085938 C 201.53125 170.894531 201.679688 170.671875 201.785156 170.417969 C 201.886719 170.167969 201.941406 169.90625 201.941406 169.632812 L 201.941406 150.832031 C 201.941406 150.558594 201.886719 150.296875 201.785156 150.042969 C 201.679688 149.792969 201.53125 149.570312 201.339844 149.378906 C 201.144531 149.183594 200.921875 149.035156 200.671875 148.929688 C 200.417969 148.828125 200.15625 148.773438 199.882812 148.773438 C 199.609375 148.773438 199.347656 148.828125 199.097656 148.929688 C 198.84375 149.035156 198.621094 149.183594 198.429688 149.378906 C 198.238281 149.570312 198.089844 149.792969 197.984375 150.042969 C 197.878906 150.296875 197.828125 150.558594 197.828125 150.832031 Z M 197.828125 150.832031 " fill-opacity="1" fill-rule="nonzero"/><path fill="#ffffff" d="M 186.078125 152.007812 L 186.078125 167.28125 C 186.078125 167.554688 186.128906 167.816406 186.234375 168.070312 C 186.335938 168.320312 186.484375 168.542969 186.679688 168.734375 C 186.871094 168.929688 187.09375 169.078125 187.347656 169.183594 C 187.597656 169.285156 187.859375 169.339844 188.132812 169.339844 C 188.40625 169.339844 188.667969 169.285156 188.921875 169.183594 C 189.171875 169.078125 189.394531 168.929688 189.585938 168.734375 C 189.78125 168.542969 189.929688 168.320312 190.03125 168.070312 C 190.136719 167.816406 190.191406 167.554688 190.191406 167.28125 L 190.191406 152.007812 C 190.191406 151.734375 190.136719 151.472656 190.03125 151.21875 C 189.929688 150.96875 189.78125 150.746094 189.585938 150.550781 C 189.394531 150.359375 189.171875 150.210938 188.921875 150.105469 C 188.667969 150 188.40625 149.949219 188.132812 149.949219 C 187.859375 149.949219 187.597656 150 187.347656 150.105469 C 187.09375 150.210938 186.871094 150.359375 186.679688 150.550781 C 186.484375 150.746094 186.335938 150.96875 186.234375 151.21875 C 186.128906 151.472656 186.078125 151.734375 186.078125 152.007812 Z M 186.078125 152.007812 " fill-opacity="1" fill-rule="nonzero"/><g clip-path="url(#6cffcf042a)"><path fill="#ffffff" d="M 218.390625 276.5625 C 218.390625 260.019531 218.390625 243.472656 218.390625 226.929688 C 218.390625 208.128906 204.550781 194.449219 188.769531 186.128906 C 186.417969 184.957031 184.347656 188.480469 186.6875 189.65625 C 202.703125 198.09375 214.265625 210.703125 214.265625 229.089844 L 214.265625 276.539062 C 214.265625 276.8125 214.320312 277.074219 214.421875 277.328125 C 214.527344 277.578125 214.675781 277.800781 214.867188 277.996094 C 215.0625 278.1875 215.285156 278.335938 215.535156 278.441406 C 215.789062 278.546875 216.050781 278.597656 216.324219 278.597656 C 216.597656 278.597656 216.859375 278.546875 217.109375 278.441406 C 217.363281 278.335938 217.585938 278.1875 217.777344 277.996094 C 217.96875 277.800781 218.117188 277.578125 218.222656 277.328125 C 218.328125 277.074219 218.378906 276.8125 218.378906 276.539062 Z M 218.390625 276.5625 " fill-opacity="1" fill-rule="nonzero"/></g></svg>